# This file uses centimeters as units for non-parametric coordinates.

mtllib backwards_cap.mtl
g default
v -0.287091 0.330805 0.208584
v -0.109659 0.330805 0.337495
v 0.109659 0.330805 0.337495
v 0.287091 0.330805 0.208583
v 0.354863 0.330805 -0.000000
v 0.287090 0.330805 -0.208583
v 0.154508 0.337251 -0.475528
v -0.154509 0.337251 -0.475528
v -0.287091 0.330805 -0.208583
v -0.354863 0.330805 -0.000000
v -0.404509 0.241632 0.293893
v -0.154508 0.241632 0.475528
v 0.154509 0.241632 0.475528
v 0.404509 0.241632 0.293893
v 0.500000 0.241632 -0.000000
v 0.404509 0.241632 -0.293893
v -0.404509 0.241632 -0.293893
v -0.500000 0.241632 -0.000000
v -0.404509 0.341632 0.293893
v -0.154508 0.341632 0.475528
v 0.154509 0.341632 0.475528
v 0.404509 0.341632 0.293893
v 0.500000 0.341632 -0.000000
v 0.404509 0.341632 -0.293893
v 0.154508 0.397715 -0.475528
v -0.154509 0.397715 -0.475528
v -0.404509 0.341632 -0.293893
v -0.500000 0.341632 -0.000000
v -0.287091 0.581343 0.208584
v -0.109659 0.581343 0.337495
v 0.109659 0.581343 0.337495
v 0.287091 0.581343 0.208583
v 0.354863 0.581343 -0.000000
v 0.287090 0.581343 -0.208583
v 0.109659 0.581343 -0.337495
v -0.109659 0.581343 -0.337495
v -0.287091 0.581343 -0.208583
v -0.354863 0.581343 -0.000000
v 0.000000 0.399032 0.000000
v 0.000000 0.685082 0.000000
v 0.154508 0.337251 -0.727975
v -0.154509 0.337251 -0.727975
v 0.500000 0.241632 -0.252446
v 0.404509 0.236857 -0.546339
v 0.404509 0.261754 -0.546339
v 0.500000 0.266529 -0.252446
v 0.154508 0.362148 -0.727975
v -0.154509 0.362148 -0.727975
v -0.404509 0.236857 -0.546339
v -0.404509 0.261754 -0.546339
v -0.500000 0.241632 -0.252446
v -0.500000 0.266529 -0.252446
vt 0.563204 0.110329
vt 0.524142 0.081949
vt 0.475858 0.081949
vt 0.436796 0.110329
vt 0.421875 0.156250
vt 0.436796 0.202171
vt 0.459243 0.251464
vt 0.540842 0.251072
vt 0.563204 0.202171
vt 0.578125 0.156250
vt 0.626409 0.064409
vt 0.548284 0.007647
vt 0.451716 0.007647
vt 0.373591 0.064409
vt 0.343750 0.156250
vt 0.373591 0.248091
vt 0.626409 0.248091
vt 0.656250 0.156250
vt 0.375000 0.312500
vt 0.400000 0.312500
vt 0.425000 0.312500
vt 0.450000 0.312500
vt 0.475000 0.312500
vt 0.500000 0.312500
vt 0.524948 0.312500
vt 0.550052 0.312500
vt 0.575000 0.312500
vt 0.600000 0.312500
vt 0.625000 0.312500
vt 0.375000 0.688440
vt 0.400000 0.688440
vt 0.425000 0.688440
vt 0.450000 0.688440
vt 0.475000 0.688440
vt 0.500000 0.688440
vt 0.525000 0.688440
vt 0.550000 0.688440
vt 0.575000 0.688440
vt 0.600000 0.688440
vt 0.625000 0.688440
vt 0.626409 0.751909
vt 0.548284 0.695147
vt 0.451716 0.695147
vt 0.373591 0.751909
vt 0.343750 0.843750
vt 0.373591 0.935591
vt 0.451716 0.992353
vt 0.548284 0.992353
vt 0.626409 0.935591
vt 0.656250 0.843750
vt 0.563204 0.797829
vt 0.524142 0.769449
vt 0.475858 0.769449
vt 0.436796 0.797829
vt 0.421875 0.843750
vt 0.436796 0.889671
vt 0.475858 0.918051
vt 0.524142 0.918051
vt 0.563204 0.889671
vt 0.578125 0.843750
vt 0.500000 0.150000
vt 0.500000 0.837500
vt 0.456108 0.294472
vt 0.545219 0.291789
vt 0.475000 0.312500
vt 0.500000 0.312500
vt 0.500000 0.688440
vt 0.475000 0.688440
vt 0.524054 0.454410
vt 0.525000 0.688440
vt 0.550000 0.688440
vt 0.550854 0.468114
vt 0.575000 0.312500
vt 0.575000 0.688440
vt 0.600000 0.312500
vt 0.600000 0.688440
vn 0.326416 -0.914992 -0.237155
vn 0.124680 -0.914992 -0.383725
vn 0.161768 -0.852030 -0.497872
vn 0.423515 -0.852030 -0.307702
vn -0.124680 -0.914992 -0.383725
vn -0.161768 -0.852030 -0.497872
vn -0.326416 -0.914992 -0.237155
vn -0.423515 -0.852030 -0.307702
vn -0.403472 -0.914992 0.000000
vn -0.523493 -0.852030 -0.000000
vn -0.336629 -0.933791 0.121303
vn -0.505330 -0.842771 0.185415
vn -0.097805 -0.987743 0.121647
vn 0.097805 -0.987743 0.121647
vn 0.336629 -0.933791 0.121303
vn 0.505330 -0.842771 0.185415
vn 0.403473 -0.914992 0.000000
vn 0.523494 -0.852030 -0.000000
vn -0.809017 0.000000 0.587785
vn -0.309017 0.000000 0.951057
vn -0.287679 0.365152 0.885384
vn -0.753153 0.365152 0.547198
vn 0.309017 0.000000 0.951056
vn 0.287679 0.365152 0.885384
vn 0.809017 0.000000 0.587785
vn 0.753153 0.365152 0.547197
vn 0.978362 0.000000 0.206903
vn 0.907521 0.417714 0.043840
vn 0.951056 0.000000 -0.309017
vn 0.951056 0.000000 -0.309017
vn 0.951056 0.000000 -0.309017
vn 0.951056 0.000000 -0.309017
vn 0.587785 0.000000 -0.809017
vn 0.587785 0.000000 -0.809017
vn 0.587785 0.000000 -0.809017
vn 0.587785 0.000000 -0.809017
vn 0.000000 0.000000 -1.000000
vn 0.000000 0.000000 -1.000000
vn 0.000000 0.000000 -1.000000
vn 0.000000 0.000000 -1.000000
vn -0.587785 0.000000 -0.809017
vn -0.587785 0.000000 -0.809017
vn -0.587785 0.000000 -0.809017
vn -0.587785 0.000000 -0.809017
vn -0.951057 0.000000 -0.309017
vn -0.951056 0.000000 -0.309017
vn -0.951057 0.000000 -0.309017
vn -0.951056 0.000000 -0.309017
vn -0.978361 0.000000 0.206903
vn -0.907521 0.417713 0.043840
vn -0.225929 0.682246 0.695339
vn -0.591491 0.682246 0.429743
vn 0.225929 0.682246 0.695339
vn 0.591491 0.682246 0.429743
vn 0.731123 0.682246 -0.000000
vn 0.716004 0.534849 -0.448636
vn 0.598199 0.697719 -0.394139
vn 0.307906 0.594207 -0.743042
vn 0.240101 0.742539 -0.625291
vn -0.307906 0.594207 -0.743042
vn -0.240101 0.742539 -0.625291
vn -0.716005 0.534849 -0.448636
vn -0.598199 0.697719 -0.394139
vn -0.731123 0.682246 -0.000000
vn 0.000000 -0.999982 -0.006055
vn -0.000000 1.000000 -0.000000
vn 0.000000 -1.000000 0.000000
vn 0.000000 -1.000000 0.000000
vn 0.000000 -1.000000 0.000000
vn 0.000000 -1.000000 0.000000
vn -0.004105 -0.999947 0.009457
vn -0.004105 -0.999947 0.009457
vn -0.004105 -0.999947 0.009457
vn -0.004105 -0.999947 0.009457
vn 0.558889 0.801077 -0.214288
vn 0.793845 0.581349 -0.178450
vn 0.445932 0.871436 -0.204312
vn 1.000000 0.000000 0.000000
vn -0.370493 -0.928794 0.008784
vn -0.370493 -0.928794 0.008784
vn -0.370493 -0.928794 0.008784
vn -0.370493 -0.928794 0.008784
vn 0.240230 0.954174 -0.178442
vn 0.162027 0.972602 -0.166712
vn -0.240230 0.954174 -0.178442
vn -0.162027 0.972602 -0.166712
vn 0.370493 -0.928794 0.008784
vn 0.370493 -0.928794 0.008784
vn 0.370493 -0.928794 0.008784
vn 0.370493 -0.928794 0.008784
vn -0.558889 0.801077 -0.214288
vn -0.445932 0.871436 -0.204312
vn 0.004105 -0.999947 0.009457
vn 0.004105 -0.999947 0.009457
vn 0.004105 -0.999947 0.009457
vn 0.004105 -0.999947 0.009457
vn -0.793845 0.581349 -0.178450
vn -1.000000 0.000000 -0.000000
s 1
g pCylinder20
usemtl initialShadingGroup
f 1/1/1 2/2/2 12/12/3 11/11/4
f 2/2/2 3/3/5 13/13/6 12/12/3
f 3/3/5 4/4/7 14/14/8 13/13/6
f 4/4/7 5/5/9 15/15/10 14/14/8
f 5/5/9 6/6/11 16/16/12 15/15/10
f 6/6/11 7/7/13 16/16/12
f 8/8/14 9/9/15 17/17/16
f 9/9/15 10/10/17 18/18/18 17/17/16
f 10/10/17 1/1/1 11/11/4 18/18/18
s 3
f 11/19/19 12/20/20 20/31/21 19/30/22
f 12/20/20 13/21/23 21/32/24 20/31/21
f 13/21/23 14/22/25 22/33/26 21/32/24
f 14/22/25 15/23/27 23/34/28 22/33/26
s off
f 43/65/29 44/66/30 45/67/31 46/68/32
f 44/66/33 41/69/34 47/70/35 45/67/36
f 41/69/37 42/72/38 48/71/39 47/70/40
f 42/72/41 49/73/42 50/74/43 48/71/44
f 49/73/45 51/75/46 52/76/47 50/74/48
s 3
f 18/28/49 11/29/19 19/40/22 28/39/50
f 19/49/22 20/48/21 30/58/51 29/59/52
f 20/48/21 21/47/24 31/57/53 30/58/51
f 21/47/24 22/46/26 32/56/54 31/57/53
f 22/46/26 23/45/28 33/55/55 32/56/54
f 23/45/28 24/44/56 34/54/57 33/55/55
f 24/44/56 25/43/58 35/53/59 34/54/57
f 25/43/58 26/42/60 36/52/61 35/53/59
f 26/42/60 27/41/62 37/51/63 36/52/61
f 27/41/62 28/50/50 38/60/64 37/51/63
f 28/50/50 19/49/22 29/59/52 38/60/64
s 1
f 2/2/2 1/1/1 39/61/65
f 3/3/5 2/2/2 39/61/65
f 4/4/7 3/3/5 39/61/65
f 5/5/9 4/4/7 39/61/65
f 6/6/11 5/5/9 39/61/65
f 7/7/13 6/6/11 39/61/65
f 8/8/14 7/7/13 39/61/65
f 9/9/15 8/8/14 39/61/65
f 10/10/17 9/9/15 39/61/65
f 1/1/1 10/10/17 39/61/65
s 3
f 29/59/52 30/58/51 40/62/66
f 30/58/51 31/57/53 40/62/66
f 31/57/53 32/56/54 40/62/66
f 32/56/54 33/55/55 40/62/66
f 33/55/55 34/54/57 40/62/66
f 34/54/57 35/53/59 40/62/66
f 35/53/59 36/52/61 40/62/66
f 36/52/61 37/51/63 40/62/66
f 37/51/63 38/60/64 40/62/66
f 38/60/64 29/59/52 40/62/66
s off
f 7/7/67 8/8/68 42/64/69 41/63/70
f 15/23/71 16/24/72 44/66/73 43/65/74
s 3
f 24/35/75 23/34/28 46/68/76 45/67/77
f 23/34/28 15/23/27 43/65/78 46/68/76
s off
f 16/24/79 7/25/80 41/69/81 44/66/82
s 3
f 25/36/83 24/35/75 45/67/77 47/70/84
f 26/37/85 25/36/83 47/70/84 48/71/86
s off
f 8/26/87 17/27/88 49/73/89 42/72/90
s 3
f 27/38/91 26/37/85 48/71/86 50/74/92
s off
f 17/27/93 18/28/94 51/75/95 49/73/96
s 3
f 18/28/49 28/39/50 52/76/97 51/75/98
f 28/39/50 27/38/91 50/74/92 52/76/97
