# This file uses centimeters as units for non-parametric coordinates.

mtllib beanie.mtl
g default
v 0.252327 0.214623 -0.218732
v 0.096380 0.195388 -0.330389
v -0.096380 0.195388 -0.330389
v -0.252327 0.214623 -0.218732
v -0.311893 0.245746 -0.038067
v -0.252327 0.276869 0.142598
v -0.096380 0.296104 0.254256
v 0.096380 0.296104 0.254256
v 0.252327 0.276869 0.142598
v 0.311893 0.245746 -0.038067
v 0.424393 0.065022 -0.319815
v 0.162104 0.032670 -0.507613
v -0.162104 0.032670 -0.507613
v -0.424393 0.065022 -0.319815
v -0.524578 0.117369 -0.015951
v -0.424393 0.169715 0.287912
v -0.162104 0.202067 0.475710
v 0.162104 0.202067 0.475710
v 0.424393 0.169715 0.287912
v 0.524578 0.117369 -0.015951
v 0.404509 0.294400 -0.344670
v 0.154508 0.263564 -0.523669
v -0.154509 0.263564 -0.523669
v -0.404509 0.294400 -0.344670
v -0.500000 0.344294 -0.055044
v -0.404509 0.394188 0.234583
v -0.154508 0.425024 0.413582
v 0.154509 0.425024 0.413582
v 0.404509 0.394188 0.234583
v 0.500000 0.344294 -0.055044
v 0.252327 0.537803 -0.274406
v 0.096380 0.518568 -0.386063
v -0.096380 0.518568 -0.386063
v -0.252327 0.537803 -0.274406
v -0.311893 0.568926 -0.093741
v -0.252327 0.600049 0.086924
v -0.096380 0.619284 0.198581
v 0.096380 0.619284 0.198581
v 0.252327 0.600049 0.086924
v 0.311893 0.568926 -0.093741
v 0.000000 0.245746 -0.038067
v 0.000000 0.674682 -0.111959
vt 0.563204 0.110329
vt 0.524142 0.081949
vt 0.475858 0.081949
vt 0.436796 0.110329
vt 0.421875 0.156250
vt 0.436796 0.202171
vt 0.475858 0.230551
vt 0.524142 0.230551
vt 0.563204 0.202171
vt 0.578125 0.156250
vt 0.626409 0.064409
vt 0.548284 0.007647
vt 0.451716 0.007647
vt 0.373591 0.064409
vt 0.343750 0.156250
vt 0.373591 0.248091
vt 0.451716 0.304853
vt 0.548284 0.304853
vt 0.626409 0.248091
vt 0.656250 0.156250
vt 0.375000 0.312500
vt 0.400000 0.312500
vt 0.425000 0.312500
vt 0.450000 0.312500
vt 0.475000 0.312500
vt 0.500000 0.312500
vt 0.525000 0.312500
vt 0.550000 0.312500
vt 0.575000 0.312500
vt 0.600000 0.312500
vt 0.625000 0.312500
vt 0.375000 0.688440
vt 0.400000 0.688440
vt 0.425000 0.688440
vt 0.450000 0.688440
vt 0.475000 0.688440
vt 0.500000 0.688440
vt 0.525000 0.688440
vt 0.550000 0.688440
vt 0.575000 0.688440
vt 0.600000 0.688440
vt 0.625000 0.688440
vt 0.626409 0.751909
vt 0.548284 0.695147
vt 0.451716 0.695147
vt 0.373591 0.751909
vt 0.343750 0.843750
vt 0.373591 0.935591
vt 0.451716 0.992353
vt 0.548284 0.992353
vt 0.626409 0.935591
vt 0.656250 0.843750
vt 0.563204 0.797829
vt 0.524142 0.769449
vt 0.475858 0.769449
vt 0.436796 0.797829
vt 0.421875 0.843750
vt 0.436796 0.889671
vt 0.475858 0.918051
vt 0.524142 0.918051
vt 0.563204 0.889671
vt 0.578125 0.843750
vt 0.500000 0.150000
vt 0.500000 0.837500
vn -0.329403 -0.859467 0.390910
vn -0.125821 -0.834356 0.536674
vn -0.161402 -0.756047 0.634305
vn -0.422556 -0.788259 0.447320
vn 0.125821 -0.834356 0.536674
vn 0.161402 -0.756047 0.634305
vn 0.329403 -0.859467 0.390910
vn 0.422556 -0.788259 0.447320
vn 0.407164 -0.900097 0.155059
vn 0.522308 -0.840378 0.144771
vn 0.329402 -0.940727 -0.080792
vn 0.422556 -0.892498 -0.157777
vn 0.125821 -0.965837 -0.226556
vn 0.161402 -0.924710 -0.344762
vn -0.125821 -0.965837 -0.226556
vn -0.161402 -0.924710 -0.344762
vn -0.329403 -0.940727 -0.080792
vn -0.422556 -0.892498 -0.157777
vn -0.407164 -0.900097 0.155059
vn -0.522308 -0.840378 0.144772
vn 0.584780 -0.037116 -0.810342
vn 0.584780 -0.037116 -0.810342
vn 0.584780 -0.037116 -0.810342
vn 0.584780 -0.037116 -0.810342
vn -0.000000 -0.069373 -0.997591
vn -0.000000 -0.069373 -0.997591
vn -0.000000 -0.069373 -0.997591
vn -0.000000 -0.069373 -0.997591
vn -0.584780 -0.037116 -0.810342
vn -0.584780 -0.037116 -0.810342
vn -0.584780 -0.037116 -0.810342
vn -0.584780 -0.037116 -0.810342
vn -0.946194 0.047335 -0.320120
vn -0.946194 0.047335 -0.320120
vn -0.946194 0.047335 -0.320120
vn -0.946194 0.047335 -0.320120
vn -0.946194 0.151721 0.285829
vn -0.946194 0.151721 0.285829
vn -0.946194 0.151721 0.285829
vn -0.946194 0.151721 0.285829
vn -0.584780 0.236172 0.776051
vn -0.584780 0.236172 0.776051
vn -0.584780 0.236172 0.776051
vn -0.584780 0.236172 0.776051
vn 0.000000 0.268429 0.963300
vn 0.000000 0.268429 0.963300
vn 0.000000 0.268429 0.963300
vn 0.000000 0.268429 0.963300
vn 0.584780 0.236172 0.776051
vn 0.584780 0.236172 0.776051
vn 0.584780 0.236172 0.776051
vn 0.584780 0.236172 0.776051
vn 0.946194 0.151721 0.285829
vn 0.946194 0.151721 0.285829
vn 0.946194 0.151721 0.285829
vn 0.946194 0.151721 0.285829
vn 0.946194 0.047335 -0.320120
vn 0.946194 0.047335 -0.320120
vn 0.946194 0.047335 -0.320120
vn 0.946194 0.047335 -0.320120
vn 0.623979 0.550291 -0.554824
vn 0.238339 0.502725 -0.830941
vn 0.211510 0.607955 -0.765281
vn 0.553740 0.650167 -0.520245
vn -0.238339 0.502725 -0.830940
vn -0.211510 0.607955 -0.765281
vn -0.623979 0.550291 -0.554824
vn -0.553740 0.650167 -0.520246
vn -0.771281 0.627256 -0.108057
vn -0.684460 0.718467 -0.123770
vn -0.623979 0.704220 0.338710
vn -0.553740 0.786768 0.272706
vn -0.238339 0.751787 0.614827
vn -0.211510 0.828980 0.517741
vn 0.238339 0.751786 0.614827
vn 0.211510 0.828980 0.517741
vn 0.623979 0.704220 0.338710
vn 0.553740 0.786768 0.272706
vn 0.771281 0.627256 -0.108057
vn 0.684460 0.718467 -0.123770
vn -0.000000 -0.985484 0.169769
vn 0.000000 0.985484 -0.169769
s 1
g pCylinder1
usemtl initialShadingGroup
f 1/1/1 2/2/2 12/12/3 11/11/4
f 2/2/2 3/3/5 13/13/6 12/12/3
f 3/3/5 4/4/7 14/14/8 13/13/6
f 4/4/7 5/5/9 15/15/10 14/14/8
f 5/5/9 6/6/11 16/16/12 15/15/10
f 6/6/11 7/7/13 17/17/14 16/16/12
f 7/7/13 8/8/15 18/18/16 17/17/14
f 8/8/15 9/9/17 19/19/18 18/18/16
f 9/9/17 10/10/19 20/20/20 19/19/18
f 10/10/19 1/1/1 11/11/4 20/20/20
s off
f 11/21/21 12/22/22 22/33/23 21/32/24
f 12/22/25 13/23/26 23/34/27 22/33/28
f 13/23/29 14/24/30 24/35/31 23/34/32
f 14/24/33 15/25/34 25/36/35 24/35/36
f 15/25/37 16/26/38 26/37/39 25/36/40
f 16/26/41 17/27/42 27/38/43 26/37/44
f 17/27/45 18/28/46 28/39/47 27/38/48
f 18/28/49 19/29/50 29/40/51 28/39/52
f 19/29/53 20/30/54 30/41/55 29/40/56
f 20/30/57 11/31/58 21/42/59 30/41/60
s 2
f 21/51/61 22/50/62 32/60/63 31/61/64
f 22/50/62 23/49/65 33/59/66 32/60/63
f 23/49/65 24/48/67 34/58/68 33/59/66
f 24/48/67 25/47/69 35/57/70 34/58/68
f 25/47/69 26/46/71 36/56/72 35/57/70
f 26/46/71 27/45/73 37/55/74 36/56/72
f 27/45/73 28/44/75 38/54/76 37/55/74
f 28/44/75 29/43/77 39/53/78 38/54/76
f 29/43/77 30/52/79 40/62/80 39/53/78
f 30/52/79 21/51/61 31/61/64 40/62/80
s 1
f 2/2/2 1/1/1 41/63/81
f 3/3/5 2/2/2 41/63/81
f 4/4/7 3/3/5 41/63/81
f 5/5/9 4/4/7 41/63/81
f 6/6/11 5/5/9 41/63/81
f 7/7/13 6/6/11 41/63/81
f 8/8/15 7/7/13 41/63/81
f 9/9/17 8/8/15 41/63/81
f 10/10/19 9/9/17 41/63/81
f 1/1/1 10/10/19 41/63/81
s 2
f 31/61/64 32/60/63 42/64/82
f 32/60/63 33/59/66 42/64/82
f 33/59/66 34/58/68 42/64/82
f 34/58/68 35/57/70 42/64/82
f 35/57/70 36/56/72 42/64/82
f 36/56/72 37/55/74 42/64/82
f 37/55/74 38/54/76 42/64/82
f 38/54/76 39/53/78 42/64/82
f 39/53/78 40/62/80 42/64/82
f 40/62/80 31/61/64 42/64/82
