# This file uses centimeters as units for non-parametric coordinates.

mtllib beret.mtl
g default
v 0.142281 0.217642 0.202254
v 0.232650 0.208623 0.077254
v 0.232650 0.208623 -0.077254
v 0.142281 0.217642 -0.202254
v -0.003939 0.232235 -0.250000
v -0.150159 0.246829 -0.202254
v -0.240528 0.255848 -0.077254
v -0.240528 0.255848 0.077254
v -0.150159 0.246829 0.202254
v -0.003939 0.232235 0.250000
v 0.280873 0.221509 0.386964
v 0.454462 0.213852 0.147807
v 0.454462 0.213852 -0.147807
v 0.280873 0.221509 -0.386964
v 0.018016 0.235178 -0.471907
v -0.252881 0.260443 -0.370651
v -0.418508 0.275973 -0.147807
v -0.418508 0.275973 0.147807
v -0.252881 0.260443 0.370651
v 0.018016 0.235178 0.471907
v 0.275347 0.467542 0.346300
v 0.402275 0.428791 0.132275
v 0.402275 0.428791 -0.132275
v 0.275347 0.467542 -0.346300
v 0.024989 0.505952 -0.396046
v -0.214006 0.532084 -0.346300
v -0.369053 0.548050 -0.132275
v -0.369053 0.548050 0.132275
v -0.214006 0.532084 0.346300
v 0.024989 0.505952 0.396046
v 0.178262 0.557658 0.202254
v 0.277318 0.540039 0.077254
v 0.277318 0.540039 -0.077254
v 0.178262 0.557658 -0.202254
v 0.032042 0.566281 -0.250000
v -0.114178 0.576986 -0.202254
v -0.204547 0.583362 -0.077254
v -0.204547 0.583362 0.077254
v -0.114178 0.576986 0.202254
v 0.032042 0.566281 0.250000
v -0.001121 0.260475 0.000000
v 0.035019 0.622585 0.000000
v 0.391117 0.223986 0.386964
v 0.538965 0.188718 0.147807
v 0.538965 0.188718 -0.147807
v 0.391117 0.223986 -0.386964
v 0.001656 0.288300 -0.478314
v -0.278100 0.316221 -0.386964
v -0.450999 0.333477 -0.147807
v -0.450998 0.333477 0.147807
v -0.278100 0.316221 0.386964
v 0.001656 0.288300 0.478314
v 0.377947 0.315822 0.461773
v 0.000177 0.349615 0.551774
v -0.316075 0.381178 0.458781
v -0.507782 0.400311 0.179558
v -0.507782 0.400311 -0.179558
v -0.316075 0.381178 -0.458781
v 0.000177 0.349615 -0.551775
v 0.377947 0.315822 -0.461773
v 0.578669 0.266486 -0.179558
v 0.578669 0.266486 0.179558
v 0.349922 0.381833 0.451885
v 0.011591 0.428950 0.534399
v -0.262988 0.475529 0.464352
v -0.463193 0.506192 0.157808
v -0.463193 0.506192 -0.157808
v -0.262988 0.475529 -0.464352
v 0.011590 0.428950 -0.534399
v 0.349922 0.381833 -0.451886
v 0.516481 0.326044 -0.157808
v 0.516481 0.326044 0.157808
v -0.212832 0.583265 0.088204
v -0.354792 0.559584 0.137293
v -0.443663 0.516193 0.173152
v -0.212832 0.583265 -0.088204
v -0.354792 0.559584 -0.137293
v -0.443663 0.516193 -0.173152
v 0.055249 0.607992 0.001411
v 0.055249 0.607992 -0.020176
v 0.033972 0.607992 -0.032460
v 0.012696 0.607992 -0.020176
v 0.012696 0.607992 0.001411
v 0.033972 0.607992 0.013695
v 0.053474 0.645193 -0.000080
v 0.053474 0.645193 -0.018686
v 0.037361 0.645193 -0.027989
v 0.021248 0.645193 -0.018686
v 0.021248 0.645193 -0.000080
v 0.037361 0.645193 0.009223
v 0.037361 0.650880 -0.009383
vt 0.563204 0.110329
vt 0.524142 0.081949
vt 0.475858 0.081949
vt 0.436796 0.110329
vt 0.421875 0.156250
vt 0.436796 0.202171
vt 0.475858 0.230551
vt 0.524142 0.230551
vt 0.563204 0.202171
vt 0.578125 0.156250
vt 0.626409 0.064409
vt 0.548284 0.007647
vt 0.451716 0.007647
vt 0.373591 0.064409
vt 0.343750 0.156250
vt 0.373591 0.248091
vt 0.451716 0.304853
vt 0.548284 0.304853
vt 0.626409 0.248091
vt 0.656250 0.156250
vt 0.375000 0.312500
vt 0.400000 0.312500
vt 0.425000 0.312500
vt 0.450000 0.312500
vt 0.475000 0.312500
vt 0.500000 0.312500
vt 0.525000 0.312500
vt 0.550000 0.312500
vt 0.575000 0.312500
vt 0.600000 0.312500
vt 0.625000 0.312500
vt 0.375000 0.688440
vt 0.400000 0.688440
vt 0.425000 0.688440
vt 0.450000 0.688440
vt 0.473505 0.687908
vt 0.500000 0.688440
vt 0.525000 0.688440
vt 0.550000 0.688440
vt 0.575000 0.688440
vt 0.601495 0.687908
vt 0.625000 0.688440
vt 0.626409 0.751909
vt 0.548284 0.695147
vt 0.451716 0.695147
vt 0.373591 0.751909
vt 0.344996 0.846659
vt 0.373591 0.935591
vt 0.451716 0.992353
vt 0.548284 0.992353
vt 0.626409 0.935591
vt 0.655004 0.846659
vt 0.563204 0.797829
vt 0.524142 0.769449
vt 0.475858 0.769449
vt 0.436796 0.797829
vt 0.415996 0.844547
vt 0.436796 0.889671
vt 0.475858 0.918051
vt 0.524142 0.918051
vt 0.563204 0.889671
vt 0.584004 0.844547
vt 0.500000 0.150000
vt 0.500000 0.837500
vt 0.625000 0.492951
vt 0.375000 0.492951
vt 0.400000 0.492951
vt 0.425000 0.492951
vt 0.450000 0.492951
vt 0.475000 0.492951
vt 0.500000 0.492951
vt 0.525000 0.492951
vt 0.550000 0.492951
vt 0.575000 0.492951
vt 0.600000 0.492951
vt 0.625000 0.606335
vt 0.375000 0.606335
vt 0.600000 0.606335
vt 0.575000 0.606335
vt 0.550000 0.606335
vt 0.525000 0.606335
vt 0.500000 0.606335
vt 0.475000 0.606335
vt 0.450000 0.606335
vt 0.425000 0.606335
vt 0.400000 0.606335
vt 0.625000 0.644103
vt 0.375000 0.644103
vt 0.600583 0.642457
vt 0.575000 0.644103
vt 0.550000 0.644103
vt 0.525000 0.644103
vt 0.500000 0.644103
vt 0.474417 0.642457
vt 0.450000 0.644103
vt 0.425000 0.644103
vt 0.400000 0.644103
vt 0.528048 0.772287
vt 0.555704 0.700539
vt 0.552374 0.688440
vt 0.552500 0.644103
vt 0.471952 0.772287
vt 0.444296 0.700539
vt 0.522625 0.688440
vt 0.522500 0.644103
vt 0.375000 0.312500
vt 0.416667 0.312500
vt 0.416667 0.688440
vt 0.375000 0.688440
vt 0.458333 0.312500
vt 0.458333 0.688440
vt 0.500000 0.312500
vt 0.500000 0.688440
vt 0.541667 0.312500
vt 0.541667 0.688440
vt 0.583333 0.312500
vt 0.583333 0.688440
vt 0.625000 0.312500
vt 0.625000 0.688440
vt 0.578125 0.979066
vt 0.421875 0.979066
vt 0.500000 0.837500
vt 0.343750 0.843750
vt 0.421875 0.708434
vt 0.578125 0.708434
vt 0.656250 0.843750
vn -0.057553 -0.998246 0.013864
vn -0.033434 -0.999390 0.010061
vn 0.009507 -0.999734 0.021018
vn -0.029509 -0.998735 0.040704
vn -0.033434 -0.999390 -0.010061
vn 0.009507 -0.999734 -0.021018
vn -0.057553 -0.998246 -0.013864
vn -0.029509 -0.998735 -0.040704
vn -0.084016 -0.996464 0.000686
vn -0.076432 -0.996589 -0.031131
vn -0.089688 -0.995934 0.008446
vn -0.105890 -0.994240 -0.016548
vn -0.083341 -0.996512 0.004180
vn -0.111217 -0.993780 -0.005679
vn -0.083341 -0.996512 -0.004180
vn -0.111217 -0.993780 0.005679
vn -0.089688 -0.995934 -0.008446
vn -0.105890 -0.994240 0.016548
vn -0.084016 -0.996464 -0.000686
vn -0.076432 -0.996589 0.031131
vn 0.315259 -0.795049 0.518178
vn 0.500658 -0.847795 0.174886
vn 0.946936 0.082701 0.310600
vn 0.484601 -0.209440 0.849292
vn 0.500658 -0.847795 -0.174886
vn 0.946936 0.082700 -0.310601
vn 0.315259 -0.795049 -0.518178
vn 0.484601 -0.209440 -0.849292
vn -0.094565 -0.650045 -0.753989
vn -0.049550 -0.357778 -0.932491
vn -0.498939 -0.664053 -0.556860
vn -0.656496 -0.144762 -0.740309
vn -0.749491 -0.632579 -0.195212
vn -0.946689 -0.042227 -0.319369
vn -0.749491 -0.632579 0.195212
vn -0.946689 -0.042227 0.319369
vn -0.498939 -0.664054 0.556860
vn -0.656496 -0.144762 0.740309
vn -0.094564 -0.650045 0.753989
vn -0.049550 -0.357778 0.932491
vn 0.413167 0.839282 0.353410
vn 0.628242 0.769485 0.114914
vn 0.531968 0.841160 0.097259
vn 0.336665 0.901293 0.272631
vn 0.628242 0.769485 -0.114915
vn 0.531968 0.841160 -0.097259
vn 0.413167 0.839282 -0.353410
vn 0.336665 0.901293 -0.272631
vn 0.124678 0.887576 -0.443469
vn 0.096749 0.938037 -0.332757
vn -0.116256 0.929345 -0.350433
vn -0.058947 0.968811 -0.240687
vn -0.127615 0.981252 -0.144426
vn -0.233907 0.943553 -0.234510
vn -0.326276 0.945195 0.012283
vn -0.168072 0.984859 -0.042475
vn -0.326276 0.945195 -0.012283
vn -0.168072 0.984859 0.042475
vn -0.127615 0.981252 0.144426
vn -0.233907 0.943553 0.234510
vn -0.116256 0.929345 0.350433
vn -0.058947 0.968811 0.240687
vn 0.124678 0.887576 0.443469
vn 0.096749 0.938036 0.332757
vn -0.099310 -0.995057 0.000000
vn 0.081789 0.996650 0.000000
vn 0.083153 -0.760525 0.643963
vn -0.191711 -0.981431 0.006397
vn -0.191711 -0.981431 -0.006396
vn 0.083153 -0.760525 -0.643963
vn -0.056901 -0.386742 -0.920431
vn -0.543787 -0.391703 -0.742202
vn -0.828562 -0.485799 -0.278359
vn -0.828562 -0.485800 0.278359
vn -0.543787 -0.391704 0.742202
vn -0.056901 -0.386742 0.920431
vn 0.478983 0.667199 0.570457
vn 0.082052 0.627818 0.774023
vn -0.362620 0.640203 0.677234
vn -0.635058 0.608623 0.475689
vn -0.794159 0.551752 0.254719
vn -0.794159 0.551752 -0.254719
vn -0.635058 0.608623 -0.475689
vn -0.362620 0.640203 -0.677234
vn 0.082052 0.627818 -0.774023
vn 0.478983 0.667199 -0.570457
vn 0.679868 0.721507 -0.131175
vn 0.679868 0.721507 0.131175
vn 0.852083 0.061488 0.519782
vn 0.852084 0.061488 -0.519781
vn 0.840704 0.197812 -0.504071
vn 0.840704 0.197813 0.504071
vn -0.029647 0.121955 -0.992093
vn 0.025753 0.241224 -0.970128
vn -0.848895 0.214502 -0.483081
vn -0.798568 0.324268 -0.507090
vn -0.848895 0.214502 0.483080
vn -0.798568 0.324268 0.507089
vn -0.029647 0.121955 0.992093
vn 0.025753 0.241224 0.970128
vn 0.000000 1.000000 -0.000001
s 1
g pCylinder18
usemtl initialShadingGroup
f 1/1/1 2/2/2 12/12/3 11/11/4
f 2/2/2 3/3/5 13/13/6 12/12/3
f 3/3/5 4/4/7 14/14/8 13/13/6
f 4/4/7 5/5/9 15/15/10 14/14/8
f 5/5/9 6/6/11 16/16/12 15/15/10
f 6/6/11 7/7/13 17/17/14 16/16/12
f 7/7/13 8/8/15 18/18/16 17/17/14
f 8/8/15 9/9/17 19/19/18 18/18/16
f 9/9/17 10/10/19 20/20/20 19/19/18
f 10/10/19 1/1/1 11/11/4 20/20/20
s 2
f 43/66/21 44/67/22 62/86/23 53/77/24
f 44/67/22 45/68/25 61/85/26 62/86/23
f 45/68/25 46/69/27 60/84/28 61/85/26
f 46/69/27 47/70/29 59/83/30 60/84/28
f 47/70/29 48/71/31 58/82/32 59/83/30
f 48/71/31 49/72/33 57/81/34 58/82/32
f 49/72/33 50/73/35 56/80/36 57/81/34
f 50/73/35 51/74/37 55/79/38 56/80/36
f 51/74/37 52/75/39 54/78/40 55/79/38
f 52/75/39 43/65/21 53/76/24 54/78/40
f 21/51/41 22/50/42 32/60/43 31/61/44
f 22/50/42 23/49/45 33/59/46 32/60/43
f 23/49/45 24/48/47 34/58/48 33/59/46
f 25/47/49 35/57/50 34/58/48 24/48/47
f 25/47/49 26/46/51 36/56/52 35/57/50
f 76/102/53 77/103/54 27/45/55 37/55/56
f 27/45/55 28/44/57 38/54/58 37/55/56
f 73/98/59 74/99/60 29/43/61 39/53/62
f 29/43/61 30/52/63 40/62/64 39/53/62
f 30/52/63 21/51/41 31/61/44 40/62/64
s 1
f 2/2/2 1/1/1 41/63/65
f 3/3/5 2/2/2 41/63/65
f 4/4/7 3/3/5 41/63/65
f 5/5/9 4/4/7 41/63/65
f 6/6/11 5/5/9 41/63/65
f 7/7/13 6/6/11 41/63/65
f 8/8/15 7/7/13 41/63/65
f 9/9/17 8/8/15 41/63/65
f 10/10/19 9/9/17 41/63/65
f 1/1/1 10/10/19 41/63/65
s 2
f 31/61/44 32/60/43 42/64/66
f 32/60/43 33/59/46 42/64/66
f 33/59/46 34/58/48 42/64/66
f 34/58/48 35/57/50 42/64/66
f 35/57/50 36/56/52 42/64/66
f 36/56/52 76/102/53 37/55/56 42/64/66
f 37/55/56 38/54/58 42/64/66
f 38/54/58 73/98/59 39/53/62 42/64/66
f 39/53/62 40/62/64 42/64/66
f 40/62/64 31/61/44 42/64/66
f 11/21/67 12/22/68 44/67/22 43/66/21
f 12/22/68 13/23/69 45/68/25 44/67/22
f 13/23/69 14/24/70 46/69/27 45/68/25
f 14/24/70 15/25/71 47/70/29 46/69/27
f 15/25/71 16/26/72 48/71/31 47/70/29
f 16/26/72 17/27/73 49/72/33 48/71/31
f 17/27/73 18/28/74 50/73/35 49/72/33
f 18/28/74 19/29/75 51/74/37 50/73/35
f 19/29/75 20/30/76 52/75/39 51/74/37
f 20/30/76 11/31/67 43/65/21 52/75/39
f 54/78/40 53/76/24 63/87/77 64/89/78
f 55/79/38 54/78/40 64/89/78 65/90/79
f 56/80/36 55/79/38 65/90/79 75/101/80 66/91/81
f 57/81/34 56/80/36 66/91/81 67/92/82
f 58/82/32 57/81/34 67/92/82 78/105/83 68/93/84
f 59/83/30 58/82/32 68/93/84 69/94/85
f 60/84/28 59/83/30 69/94/85 70/95/86
f 61/85/26 60/84/28 70/95/86 71/96/87
f 62/86/23 61/85/26 71/96/87 72/97/88
f 53/77/24 62/86/23 72/97/88 63/88/77
f 64/89/78 63/87/77 21/42/41 30/41/63
f 65/90/79 64/89/78 30/41/63 29/40/61
f 74/100/60 75/101/80 65/90/79 29/40/61
f 67/92/82 66/91/81 28/39/57 27/38/55
f 77/104/54 78/105/83 67/92/82 27/38/55
f 69/94/85 68/93/84 26/37/51 25/36/49
f 69/94/85 25/36/49 24/35/47 70/95/86
f 71/96/87 70/95/86 24/35/47 23/34/45
f 72/97/88 71/96/87 23/34/45 22/33/42
f 63/88/77 72/97/88 22/33/42 21/32/41
f 28/44/57 74/99/60 73/98/59 38/54/58
f 66/91/81 75/101/80 74/100/60 28/39/57
f 26/46/51 77/103/54 76/102/53 36/56/52
f 68/93/84 78/105/83 77/104/54 26/37/51
s 4
f 79/106/89 80/107/90 86/108/91 85/109/92
f 80/107/90 81/110/93 87/111/94 86/108/91
f 81/110/93 82/112/95 88/113/96 87/111/94
f 82/112/95 83/114/97 89/115/98 88/113/96
f 83/114/97 84/116/99 90/117/100 89/115/98
f 84/116/99 79/118/89 85/119/92 90/117/100
f 85/120/92 86/121/91 91/122/101
f 86/121/91 87/123/94 91/122/101
f 87/123/94 88/124/96 91/122/101
f 88/124/96 89/125/98 91/122/101
f 89/125/98 90/126/100 91/122/101
f 90/126/100 85/120/92 91/122/101
