# This file uses centimeters as units for non-parametric coordinates.

mtllib buckethat.mtl
g default
v 0.202254 0.301746 -0.174481
v 0.077254 0.289969 -0.264532
v -0.077254 0.289969 -0.264532
v -0.202254 0.301746 -0.174481
v -0.250000 0.297828 -0.027856
v -0.202254 0.316883 0.117849
v -0.077254 0.328660 0.207900
v 0.077254 0.328660 0.207900
v 0.202254 0.316883 0.117849
v 0.250000 0.297828 -0.027856
v 0.536681 0.103402 -0.399070
v 0.204994 0.072152 -0.638020
v -0.204994 0.072152 -0.638020
v -0.536681 0.103402 -0.399070
v -0.663374 0.153965 -0.012441
v -0.536681 0.166584 0.375706
v -0.204994 0.235779 0.613138
v 0.204994 0.235778 0.613138
v 0.536681 0.166584 0.375706
v 0.663374 0.153965 -0.012441
v 0.365570 0.609735 -0.341996
v 0.139635 0.588449 -0.504761
v -0.139635 0.588449 -0.504761
v -0.365570 0.609735 -0.341996
v -0.451869 0.644178 -0.078637
v -0.365570 0.678620 0.184723
v -0.139635 0.699906 0.347488
v 0.139635 0.699906 0.347488
v 0.365570 0.678620 0.184723
v 0.451869 0.644178 -0.078637
v 0.202254 0.685578 -0.232249
v 0.077254 0.673801 -0.322300
v -0.077254 0.673801 -0.322300
v -0.202254 0.685578 -0.232249
v -0.250000 0.704633 -0.086543
v -0.202254 0.723689 0.059163
v -0.077254 0.735466 0.149214
v 0.077254 0.735466 0.149214
v 0.202254 0.723689 0.059163
v 0.250000 0.704633 -0.086543
v 0.000000 0.324326 -0.031322
v 0.000000 0.736731 -0.090741
v 0.404509 0.319210 -0.327048
v 0.154508 0.295657 -0.507150
v -0.154509 0.295657 -0.507150
v -0.404509 0.319210 -0.327048
v -0.500000 0.357321 -0.035637
v -0.404509 0.395432 0.255774
v -0.154508 0.418986 0.435876
v 0.154509 0.418986 0.435876
v 0.404509 0.395432 0.255774
v 0.500000 0.357321 -0.035637
v 0.509927 0.087298 -0.377360
v 0.194775 0.057606 -0.604398
v -0.194775 0.057606 -0.604398
v -0.509927 0.087298 -0.377360
v -0.630304 0.135341 -0.010005
v -0.509927 0.145439 0.358868
v -0.194775 0.213076 0.584388
v 0.194775 0.213076 0.584388
v 0.509927 0.145439 0.358868
v 0.630304 0.135341 -0.010005
v 0.378005 0.562533 -0.344934
v 0.467240 0.598147 -0.072617
v 0.378005 0.633761 0.199701
v 0.144385 0.655771 0.368003
v -0.144385 0.655771 0.368003
v -0.378005 0.633761 0.199701
v -0.467240 0.598147 -0.072617
v -0.378005 0.562533 -0.344934
v -0.144385 0.540522 -0.513236
v 0.144385 0.540522 -0.513236
vt 0.563204 0.110329
vt 0.524142 0.081949
vt 0.475858 0.081949
vt 0.436796 0.110329
vt 0.421875 0.156250
vt 0.436796 0.202171
vt 0.475858 0.230551
vt 0.524142 0.230551
vt 0.563204 0.202171
vt 0.578125 0.156250
vt 0.626409 0.064409
vt 0.548284 0.007647
vt 0.451716 0.007647
vt 0.373591 0.064409
vt 0.343750 0.156250
vt 0.373591 0.248091
vt 0.451716 0.304853
vt 0.548284 0.304853
vt 0.626409 0.248091
vt 0.656250 0.156250
vt 0.375000 0.312500
vt 0.400000 0.312500
vt 0.425000 0.312500
vt 0.450000 0.312500
vt 0.475000 0.312500
vt 0.500000 0.312500
vt 0.525000 0.312500
vt 0.550000 0.312500
vt 0.575000 0.312500
vt 0.600000 0.312500
vt 0.625000 0.312500
vt 0.375000 0.688440
vt 0.400000 0.688440
vt 0.425000 0.688440
vt 0.450000 0.688440
vt 0.475000 0.688440
vt 0.500000 0.688440
vt 0.525000 0.688440
vt 0.550000 0.688440
vt 0.575000 0.688440
vt 0.600000 0.688440
vt 0.625000 0.688440
vt 0.626409 0.751909
vt 0.548284 0.695147
vt 0.451716 0.695147
vt 0.373591 0.751909
vt 0.343750 0.843750
vt 0.373591 0.935591
vt 0.451716 0.992353
vt 0.548284 0.992353
vt 0.626409 0.935591
vt 0.656250 0.843750
vt 0.563204 0.797829
vt 0.524142 0.769449
vt 0.475858 0.769449
vt 0.436796 0.797829
vt 0.421875 0.843750
vt 0.436796 0.889671
vt 0.475858 0.918051
vt 0.524142 0.918051
vt 0.563204 0.889671
vt 0.578125 0.843750
vt 0.500000 0.150000
vt 0.500000 0.837500
vt 0.625000 0.387688
vt 0.375000 0.387688
vt 0.400000 0.387688
vt 0.425000 0.387688
vt 0.450000 0.387688
vt 0.475000 0.387688
vt 0.500000 0.387688
vt 0.525000 0.387688
vt 0.550000 0.387688
vt 0.575000 0.387688
vt 0.600000 0.387688
vt 0.621353 0.068082
vt 0.546353 0.013591
vt 0.453647 0.013592
vt 0.378647 0.068082
vt 0.350000 0.156250
vt 0.378647 0.244418
vt 0.453647 0.298909
vt 0.546353 0.298909
vt 0.621353 0.244418
vt 0.650000 0.156250
vt 0.625000 0.646335
vt 0.375000 0.646335
vt 0.600000 0.646335
vt 0.575000 0.646335
vt 0.550000 0.646335
vt 0.525000 0.646335
vt 0.500000 0.646335
vt 0.475000 0.646335
vt 0.450000 0.646335
vt 0.425000 0.646335
vt 0.400000 0.646335
vn -0.243308 -0.926795 0.286097
vn -0.094564 -0.905712 0.413211
vn 0.152612 -0.923106 -0.352967
vn 0.399543 -0.899841 -0.175076
vn 0.094564 -0.905712 0.413211
vn -0.152612 -0.923106 -0.352967
vn 0.243308 -0.926795 0.286097
vn -0.399543 -0.899841 -0.175076
vn 0.289902 -0.954410 0.071121
vn -0.502655 -0.861567 0.071002
vn 0.262979 -0.962535 -0.066099
vn -0.384013 -0.836416 0.391080
vn 0.125810 -0.984514 -0.122084
vn -0.117997 -0.792938 0.597767
vn -0.125810 -0.984514 -0.122084
vn 0.117997 -0.792938 0.597767
vn -0.262979 -0.962535 -0.066099
vn 0.384013 -0.836416 0.391079
vn -0.289902 -0.954410 0.071121
vn 0.502654 -0.861567 0.071002
vn 0.805222 0.044240 -0.591322
vn 0.308357 -0.010894 -0.951208
vn 0.305806 -0.011020 -0.952030
vn 0.801113 0.043379 -0.596939
vn -0.308357 -0.010894 -0.951208
vn -0.305807 -0.011020 -0.952030
vn -0.805221 0.044240 -0.591322
vn -0.801113 0.043380 -0.596939
vn -0.991054 0.132835 -0.012901
vn -0.991081 0.131526 -0.021443
vn -0.798225 0.220638 0.560495
vn -0.802336 0.219787 0.554934
vn -0.304035 0.274493 0.912259
vn -0.306562 0.274369 0.911450
vn 0.304035 0.274493 0.912259
vn 0.306562 0.274369 0.911450
vn 0.798226 0.220638 0.560495
vn 0.802336 0.219787 0.554934
vn 0.991054 0.132834 -0.012901
vn 0.991081 0.131526 -0.021443
vn 0.424652 0.803969 -0.416299
vn 0.162203 0.779242 -0.605369
vn 0.078467 0.927740 -0.364885
vn 0.205430 0.939702 -0.273419
vn -0.162203 0.779242 -0.605369
vn -0.078467 0.927740 -0.364884
vn -0.424652 0.803969 -0.416298
vn -0.205430 0.939702 -0.273419
vn -0.524899 0.843977 -0.110376
vn -0.253926 0.959057 -0.125426
vn -0.424652 0.883986 0.195547
vn -0.205430 0.978412 0.022567
vn -0.162203 0.908713 0.384618
vn -0.078467 0.990373 0.114032
vn 0.162203 0.908713 0.384618
vn 0.078467 0.990373 0.114033
vn 0.424652 0.883986 0.195547
vn 0.205430 0.978412 0.022568
vn 0.524899 0.843978 -0.110376
vn 0.253926 0.959057 -0.125426
vn -0.122751 -0.861450 0.492784
vn -0.320290 -0.888632 0.328250
vn -0.000000 -0.997288 0.073594
vn 0.122751 -0.861450 0.492784
vn 0.320290 -0.888632 0.328250
vn 0.391909 -0.917554 0.067095
vn 0.337890 -0.932683 -0.126222
vn 0.150003 -0.962388 -0.226515
vn -0.150003 -0.962388 -0.226515
vn -0.337890 -0.932683 -0.126222
vn -0.391909 -0.917554 0.067095
vn -0.000000 0.991556 -0.129676
vn 0.628177 0.563709 -0.536307
vn 0.238990 0.530280 -0.813441
vn 0.240178 0.530326 -0.813061
vn 0.630125 0.564026 -0.533682
vn -0.238991 0.530280 -0.813441
vn -0.240178 0.530326 -0.813061
vn -0.628177 0.563709 -0.536307
vn -0.630125 0.564026 -0.533682
vn -0.793592 0.606580 -0.047670
vn -0.793521 0.606454 -0.050379
vn -0.661865 0.635090 0.398241
vn -0.658752 0.635590 0.402581
vn -0.281360 0.691316 0.665522
vn -0.273527 0.692231 0.667832
vn 0.281360 0.691316 0.665522
vn 0.273527 0.692231 0.667831
vn 0.661865 0.635090 0.398241
vn 0.658752 0.635590 0.402580
vn 0.793592 0.606580 -0.047670
vn 0.793521 0.606455 -0.050379
vn 0.949317 0.311668 -0.040760
vn 0.768013 0.239309 -0.594043
vn 0.768013 0.384026 0.512523
vn 0.293355 0.428746 0.854470
vn -0.293355 0.428746 0.854470
vn -0.768013 0.384026 0.512523
vn -0.949317 0.311668 -0.040760
vn -0.768013 0.239310 -0.594043
vn -0.293355 0.194590 -0.935990
vn 0.293355 0.194589 -0.935990
s 1
g pCylinder15
usemtl initialShadingGroup
f 53/76/1 54/77/2 12/12/3 11/11/4
f 54/77/2 55/78/5 13/13/6 12/12/3
f 55/78/5 56/79/7 14/14/8 13/13/6
f 56/79/7 57/80/9 15/15/10 14/14/8
f 57/80/9 58/81/11 16/16/12 15/15/10
f 58/81/11 59/82/13 17/17/14 16/16/12
f 59/82/13 60/83/15 18/18/16 17/17/14
f 60/83/15 61/84/17 19/19/18 18/18/16
f 61/84/17 62/85/19 20/20/20 19/19/18
f 62/85/19 53/76/1 11/11/4 20/20/20
s 2
f 43/66/21 44/67/22 72/96/23 63/87/24
f 44/67/22 45/68/25 71/95/26 72/96/23
f 45/68/25 46/69/27 70/94/28 71/95/26
f 46/69/27 47/70/29 69/93/30 70/94/28
f 47/70/29 48/71/31 68/92/32 69/93/30
f 48/71/31 49/72/33 67/91/34 68/92/32
f 49/72/33 50/73/35 66/90/36 67/91/34
f 50/73/35 51/74/37 65/89/38 66/90/36
f 51/74/37 52/75/39 64/88/40 65/89/38
f 52/75/39 43/65/21 63/86/24 64/88/40
s 3
f 21/51/41 22/50/42 32/60/43 31/61/44
f 22/50/42 23/49/45 33/59/46 32/60/43
f 23/49/45 24/48/47 34/58/48 33/59/46
f 24/48/47 25/47/49 35/57/50 34/58/48
f 25/47/49 26/46/51 36/56/52 35/57/50
f 26/46/51 27/45/53 37/55/54 36/56/52
f 27/45/53 28/44/55 38/54/56 37/55/54
f 28/44/55 29/43/57 39/53/58 38/54/56
f 29/43/57 30/52/59 40/62/60 39/53/58
f 30/52/59 21/51/41 31/61/44 40/62/60
s 1
f 2/2/61 1/1/62 41/63/63
f 3/3/64 2/2/61 41/63/63
f 4/4/65 3/3/64 41/63/63
f 5/5/66 4/4/65 41/63/63
f 6/6/67 5/5/66 41/63/63
f 7/7/68 6/6/67 41/63/63
f 8/8/69 7/7/68 41/63/63
f 9/9/70 8/8/69 41/63/63
f 10/10/71 9/9/70 41/63/63
f 1/1/62 10/10/71 41/63/63
s 3
f 31/61/44 32/60/43 42/64/72
f 32/60/43 33/59/46 42/64/72
f 33/59/46 34/58/48 42/64/72
f 34/58/48 35/57/50 42/64/72
f 35/57/50 36/56/52 42/64/72
f 36/56/52 37/55/54 42/64/72
f 37/55/54 38/54/56 42/64/72
f 38/54/56 39/53/58 42/64/72
f 39/53/58 40/62/60 42/64/72
f 40/62/60 31/61/44 42/64/72
s 4
f 11/21/73 12/22/74 44/67/75 43/66/76
f 12/22/74 13/23/77 45/68/78 44/67/75
f 13/23/77 14/24/79 46/69/80 45/68/78
f 14/24/79 15/25/81 47/70/82 46/69/80
f 15/25/81 16/26/83 48/71/84 47/70/82
f 16/26/83 17/27/85 49/72/86 48/71/84
f 17/27/85 18/28/87 50/73/88 49/72/86
f 18/28/87 19/29/89 51/74/90 50/73/88
f 19/29/89 20/30/91 52/75/92 51/74/90
f 20/30/91 11/31/73 43/65/76 52/75/92
s 1
f 1/1/62 2/2/61 54/77/2 53/76/1
f 2/2/61 3/3/64 55/78/5 54/77/2
f 3/3/64 4/4/65 56/79/7 55/78/5
f 4/4/65 5/5/66 57/80/9 56/79/7
f 5/5/66 6/6/67 58/81/11 57/80/9
f 6/6/67 7/7/68 59/82/13 58/81/11
f 7/7/68 8/8/69 60/83/15 59/82/13
f 8/8/69 9/9/70 61/84/17 60/83/15
f 9/9/70 10/10/71 62/85/19 61/84/17
f 10/10/71 1/1/62 53/76/1 62/85/19
s 3
f 64/88/93 63/86/94 21/42/41 30/41/59
f 65/89/95 64/88/93 30/41/59 29/40/57
f 66/90/96 65/89/95 29/40/57 28/39/55
f 67/91/97 66/90/96 28/39/55 27/38/53
f 68/92/98 67/91/97 27/38/53 26/37/51
f 69/93/99 68/92/98 26/37/51 25/36/49
f 70/94/100 69/93/99 25/36/49 24/35/47
f 71/95/101 70/94/100 24/35/47 23/34/45
f 72/96/102 71/95/101 23/34/45 22/33/42
f 63/87/94 72/96/102 22/33/42 21/32/41
