# This file uses centimeters as units for non-parametric coordinates.

mtllib chef_hat.mtl
g default
v 0.198488 0.273801 -0.194219
v 0.075816 0.260532 -0.284062
v -0.075816 0.260532 -0.284062
v -0.198488 0.273801 -0.194219
v -0.245345 0.295271 -0.048850
v -0.198488 0.316741 0.096520
v -0.075816 0.330010 0.186363
v 0.075816 0.330010 0.186363
v 0.198488 0.316741 0.096520
v 0.245345 0.295271 -0.048850
v 0.396976 0.134024 -0.322116
v 0.151631 0.107490 -0.481806
v -0.151631 0.107490 -0.481806
v -0.396976 0.134024 -0.322116
v -0.490690 0.176964 -0.031377
v -0.396976 0.219904 0.259362
v -0.151631 0.246442 0.439049
v 0.151631 0.246442 0.439049
v 0.396976 0.219904 0.259362
v 0.490690 0.176964 -0.031377
v 0.396976 0.450623 -0.368875
v 0.151631 0.427554 -0.542098
v -0.151631 0.427554 -0.542098
v -0.396976 0.450623 -0.368875
v -0.490690 0.493563 -0.078136
v -0.396976 0.536503 0.212603
v -0.151631 0.563041 0.392290
v 0.151631 0.563041 0.392289
v 0.396976 0.536503 0.212603
v 0.490690 0.493563 -0.078136
v 0.000000 0.342012 -0.055753
v 0.109822 1.076669 -0.410024
v -0.000082 1.148803 -0.174887
v 0.228886 1.085559 -0.298512
v 0.460629 0.920480 -0.431213
v 0.221074 0.866547 -0.636490
v -0.051221 1.073931 -0.428561
v -0.101012 0.861071 -0.673564
v -0.192731 1.078392 -0.347042
v -0.382603 0.906145 -0.528274
v -0.260655 1.113482 -0.200318
v -0.521228 0.985856 -0.212117
v -0.229049 1.137130 -0.040197
v -0.458016 1.048219 0.105899
v -0.109986 1.153438 0.070219
v -0.219889 1.080835 0.326732
v 0.051057 1.156176 0.088756
v 0.102197 1.086310 0.363807
v 0.192567 1.144298 0.008333
v 0.385216 1.062555 0.202961
v 0.260491 1.122342 -0.140331
v 0.521064 1.003576 -0.092142
vt 0.563204 0.110329
vt 0.524142 0.081949
vt 0.475858 0.081949
vt 0.436796 0.110329
vt 0.421875 0.156250
vt 0.436796 0.202171
vt 0.475858 0.230551
vt 0.524142 0.230551
vt 0.563204 0.202171
vt 0.578125 0.156250
vt 0.626409 0.064409
vt 0.548284 0.007647
vt 0.451716 0.007647
vt 0.373591 0.064409
vt 0.343750 0.156250
vt 0.373591 0.248091
vt 0.451716 0.304853
vt 0.548284 0.304853
vt 0.626409 0.248091
vt 0.656250 0.156250
vt 0.375000 0.312500
vt 0.400000 0.312500
vt 0.425000 0.312500
vt 0.450000 0.312500
vt 0.475000 0.312500
vt 0.500000 0.312500
vt 0.525000 0.312500
vt 0.550000 0.312500
vt 0.575000 0.312500
vt 0.600000 0.312500
vt 0.625000 0.312500
vt 0.375000 0.688440
vt 0.400000 0.688440
vt 0.425000 0.688440
vt 0.450000 0.688440
vt 0.475000 0.688440
vt 0.500000 0.688440
vt 0.525000 0.688440
vt 0.550000 0.688440
vt 0.575000 0.688440
vt 0.600000 0.688440
vt 0.625000 0.688440
vt 0.626409 0.751909
vt 0.548284 0.695147
vt 0.451716 0.695147
vt 0.373591 0.751909
vt 0.343750 0.843750
vt 0.373591 0.935591
vt 0.451716 0.992353
vt 0.548284 0.992353
vt 0.626409 0.935591
vt 0.656250 0.843750
vt 0.563204 0.797829
vt 0.524142 0.769449
vt 0.475858 0.769449
vt 0.436796 0.797829
vt 0.421875 0.843750
vt 0.436796 0.889671
vt 0.475858 0.918051
vt 0.524142 0.918051
vt 0.563204 0.889671
vt 0.578125 0.843750
vt 0.500000 0.150000
vt 0.500000 0.837500
vt 0.626409 0.935591
vt 0.548284 0.992353
vt 0.451716 0.992353
vt 0.373591 0.935591
vt 0.343750 0.843750
vt 0.373591 0.751909
vt 0.451716 0.695147
vt 0.548284 0.695147
vt 0.626409 0.751909
vt 0.656250 0.843750
vn -0.320488 -0.872595 0.368599
vn -0.119039 -0.841340 0.527236
vn -0.136072 -0.812161 0.567343
vn -0.354262 -0.849257 0.391486
vn 0.119039 -0.841340 0.527236
vn 0.136073 -0.812161 0.567343
vn 0.320488 -0.872595 0.368599
vn 0.354263 -0.849257 0.391486
vn 0.396997 -0.907971 0.134100
vn 0.438158 -0.889252 0.131335
vn 0.322101 -0.942222 -0.092027
vn 0.353979 -0.927510 -0.120098
vn 0.123607 -0.964498 -0.233377
vn 0.134894 -0.952105 -0.274407
vn -0.123607 -0.964498 -0.233377
vn -0.134894 -0.952105 -0.274407
vn -0.322101 -0.942222 -0.092027
vn -0.353979 -0.927510 -0.120098
vn -0.396997 -0.907971 0.134100
vn -0.438158 -0.889252 0.131335
vn 0.804783 -0.095228 -0.585881
vn 0.293035 -0.168753 -0.941091
vn 0.288947 -0.169098 -0.942293
vn 0.804890 -0.095202 -0.585737
vn -0.293036 -0.168753 -0.941091
vn -0.288947 -0.169098 -0.942293
vn -0.804783 -0.095228 -0.585881
vn -0.804890 -0.095202 -0.585737
vn -1.000000 -0.000000 0.000000
vn -1.000000 -0.000000 0.000000
vn -0.814223 0.084823 0.574322
vn -0.814223 0.084823 0.574322
vn -0.314306 0.138702 0.939134
vn -0.314306 0.138702 0.939134
vn 0.314306 0.138702 0.939134
vn 0.314306 0.138702 0.939134
vn 0.814223 0.084823 0.574322
vn 0.814223 0.084823 0.574322
vn 1.000000 -0.000000 0.000000
vn 1.000000 -0.000000 0.000000
vn -0.000000 -0.989269 0.146107
vn 0.176608 0.816154 -0.550184
vn 0.349678 0.856670 -0.379265
vn 0.839729 0.147179 -0.522679
vn 0.375316 0.084879 -0.923002
vn -0.074301 0.811889 -0.579065
vn -0.208887 0.076844 -0.974916
vn -0.282929 0.845915 -0.452083
vn -0.736772 0.128176 -0.663881
vn -0.363322 0.901885 -0.233667
vn -0.968131 0.219806 -0.120031
vn -0.309774 0.950707 0.014021
vn -0.837767 0.297756 0.457698
vn -0.141940 0.976360 0.163018
vn -0.384430 0.351803 0.853492
vn 0.068367 0.979935 0.187226
vn 0.225185 0.361146 0.904912
vn 0.266421 0.960502 0.080345
vn 0.739539 0.320611 0.591854
vn 0.376435 0.914461 -0.148515
vn 0.968405 0.244658 0.048323
vn 0.621681 -0.220645 -0.751551
vn 0.621681 -0.220645 -0.751551
vn 0.059430 -0.257814 -0.964365
vn 0.059430 -0.257814 -0.964365
vn -0.525053 -0.229725 -0.819479
vn -0.525053 -0.229725 -0.819479
vn -0.935046 -0.119287 -0.333856
vn -0.935046 -0.119287 -0.333856
vn -0.966831 -0.027308 0.253954
vn -0.966831 -0.027308 0.253954
vn -0.640681 0.047759 0.766320
vn -0.640681 0.047759 0.766320
vn -0.059702 0.083107 0.994751
vn -0.059702 0.083107 0.994751
vn 0.544862 0.062158 0.836219
vn 0.544862 0.062158 0.836219
vn 0.930543 -0.008363 0.366088
vn 0.930543 -0.008363 0.366088
vn 0.970302 -0.109899 -0.215493
vn 0.970302 -0.109899 -0.215493
vn 0.002310 0.986171 -0.165715
s 1
g pCylinder22
usemtl initialShadingGroup
f 1/1/1 2/2/2 12/12/3 11/11/4
f 2/2/2 3/3/5 13/13/6 12/12/3
f 3/3/5 4/4/7 14/14/8 13/13/6
f 4/4/7 5/5/9 15/15/10 14/14/8
f 5/5/9 6/6/11 16/16/12 15/15/10
f 6/6/11 7/7/13 17/17/14 16/16/12
f 7/7/13 8/8/15 18/18/16 17/17/14
f 8/8/15 9/9/17 19/19/18 18/18/16
f 9/9/17 10/10/19 20/20/20 19/19/18
f 10/10/19 1/1/1 11/11/4 20/20/20
s 2
f 11/21/21 12/22/22 22/33/23 21/32/24
f 12/22/22 13/23/25 23/34/26 22/33/23
f 13/23/25 14/24/27 24/35/28 23/34/26
f 14/24/27 15/25/29 25/36/30 24/35/28
f 15/25/29 16/26/31 26/37/32 25/36/30
f 16/26/31 17/27/33 27/38/34 26/37/32
f 17/27/33 18/28/35 28/39/36 27/38/34
f 18/28/35 19/29/37 29/40/38 28/39/36
f 19/29/37 20/30/39 30/41/40 29/40/38
f 20/30/39 11/31/21 21/42/24 30/41/40
s 1
f 2/2/2 1/1/1 31/63/41
f 3/3/5 2/2/2 31/63/41
f 4/4/7 3/3/5 31/63/41
f 5/5/9 4/4/7 31/63/41
f 6/6/11 5/5/9 31/63/41
f 7/7/13 6/6/11 31/63/41
f 8/8/15 7/7/13 31/63/41
f 9/9/17 8/8/15 31/63/41
f 10/10/19 9/9/17 31/63/41
f 1/1/1 10/10/19 31/63/41
s 3
f 32/60/42 34/61/43 35/65/44 36/66/45
f 37/59/46 32/60/42 36/66/45 38/67/47
f 39/58/48 37/59/46 38/67/47 40/68/49
f 41/57/50 39/58/48 40/68/49 42/69/51
f 43/56/52 41/57/50 42/69/51 44/70/53
f 45/55/54 43/56/52 44/70/53 46/71/55
f 47/54/56 45/55/54 46/71/55 48/72/57
f 49/53/58 47/54/56 48/72/57 50/73/59
f 51/62/60 49/53/58 50/73/59 52/74/61
f 34/61/43 51/62/60 52/74/61 35/65/44
f 21/51/62 22/50/63 36/66/45 35/65/44
f 22/50/64 23/49/65 38/67/47 36/66/45
f 23/49/66 24/48/67 40/68/49 38/67/47
f 24/48/68 25/47/69 42/69/51 40/68/49
f 25/47/70 26/46/71 44/70/53 42/69/51
f 26/46/72 27/45/73 46/71/55 44/70/53
f 27/45/74 28/44/75 48/72/57 46/71/55
f 28/44/76 29/43/77 50/73/59 48/72/57
f 29/43/78 30/52/79 52/74/61 50/73/59
f 30/52/80 21/51/81 35/65/44 52/74/61
f 34/61/43 33/64/82 51/62/60
f 51/62/60 33/64/82 49/53/58
f 49/53/58 33/64/82 47/54/56
f 47/54/56 33/64/82 45/55/54
f 45/55/54 33/64/82 43/56/52
f 43/56/52 33/64/82 41/57/50
f 41/57/50 33/64/82 39/58/48
f 39/58/48 33/64/82 37/59/46
f 37/59/46 33/64/82 32/60/42
f 32/60/42 33/64/82 34/61/43
