# This file uses centimeters as units for non-parametric coordinates.

mtllib crown.mtl
g default
v 0.314722 0.300587 -0.228659
v 0.120213 0.300587 -0.369978
v -0.120213 0.300587 -0.369978
v -0.314722 0.300587 -0.228659
v -0.389018 0.300587 0.000000
v -0.314722 0.300587 0.228659
v -0.120213 0.300587 0.369978
v 0.120213 0.300587 0.369978
v 0.314722 0.300587 0.228659
v 0.389018 0.300587 0.000000
v 0.341867 0.300587 -0.248381
v 0.130582 0.300587 -0.401889
v -0.130582 0.300587 -0.401889
v -0.341867 0.300587 -0.248381
v -0.422571 0.300587 0.000000
v -0.341867 0.300587 0.248381
v -0.130582 0.300587 0.401889
v 0.130582 0.300587 0.401889
v 0.341867 0.300587 0.248381
v 0.422571 0.300587 0.000000
v 0.341867 0.328950 -0.248381
v 0.130582 0.328950 -0.401889
v -0.130582 0.328950 -0.401889
v -0.341867 0.328950 -0.248381
v -0.422571 0.328950 0.000000
v -0.341867 0.328950 0.248381
v -0.130582 0.328950 0.401889
v 0.130582 0.328950 0.401889
v 0.341867 0.328950 0.248381
v 0.422571 0.328950 0.000000
v 0.133762 0.317453 -0.411676
v 0.350192 0.317453 -0.254430
v -0.133762 0.317453 -0.411676
v -0.350193 0.317453 -0.254430
v -0.432862 0.317453 0.000000
v -0.350192 0.317453 0.254430
v -0.133762 0.317453 0.411676
v 0.133762 0.317453 0.411676
v 0.350192 0.317453 0.254430
v 0.432862 0.317453 0.000000
v 0.010479 0.625293 0.364789
v -0.010479 0.625293 0.364789
v -0.010479 0.627241 0.396657
v 0.010479 0.627241 0.396657
v 0.222895 0.625293 0.288961
v 0.205939 0.625293 0.301280
v 0.224671 0.627241 0.327062
v 0.241627 0.627241 0.314742
v -0.205939 0.625293 0.301280
v -0.222895 0.625293 0.288961
v -0.241627 0.627241 0.314742
v -0.224671 0.627241 0.327062
v 0.350173 0.625293 0.102759
v 0.343696 0.625293 0.122692
v 0.374004 0.627241 0.132540
v 0.380481 0.627241 0.112607
v -0.343696 0.625293 0.122692
v -0.350173 0.625293 0.102759
v -0.380481 0.627241 0.112607
v -0.374004 0.627241 0.132540
v 0.343696 0.625293 -0.122692
v 0.350173 0.625293 -0.102759
v 0.380481 0.627241 -0.112607
v 0.374004 0.627241 -0.132540
v -0.350173 0.625293 -0.102759
v -0.343696 0.625293 -0.122692
v -0.374005 0.627241 -0.132540
v -0.380481 0.627241 -0.112607
v 0.205939 0.625293 -0.301280
v 0.222895 0.625293 -0.288961
v 0.241627 0.627241 -0.314742
v 0.224671 0.627241 -0.327062
v -0.222895 0.625293 -0.288961
v -0.205939 0.625293 -0.301280
v -0.224671 0.627241 -0.327062
v -0.241627 0.627241 -0.314742
v -0.010479 0.625293 -0.364789
v 0.010479 0.625293 -0.364789
v 0.010479 0.627241 -0.396657
v -0.010479 0.627241 -0.396657
v 0.348210 0.459191 -0.225516
v 0.341867 0.395638 -0.248381
v 0.322082 0.459191 -0.261479
v 0.320989 0.462730 -0.205739
v 0.294860 0.462730 -0.241702
v 0.314722 0.395638 -0.228659
v 0.149153 0.459191 -0.387119
v 0.130582 0.395638 -0.401889
v 0.106876 0.459191 -0.400856
v 0.138755 0.462730 -0.355119
v 0.096478 0.462730 -0.368856
v 0.120213 0.395638 -0.369978
v -0.106876 0.459191 -0.400856
v -0.130582 0.395638 -0.401889
v -0.149153 0.459191 -0.387119
v -0.096478 0.462730 -0.368856
v -0.138755 0.462730 -0.355119
v -0.120213 0.395638 -0.369978
v -0.322082 0.459191 -0.261479
v -0.341867 0.395638 -0.248381
v -0.348210 0.459191 -0.225516
v -0.294860 0.462730 -0.241702
v -0.320989 0.462730 -0.205739
v -0.314722 0.395638 -0.228659
v -0.414263 0.459191 -0.022226
v -0.422571 0.395638 0.000000
v -0.414263 0.459191 0.022226
v -0.380616 0.462730 -0.022226
v -0.380616 0.462730 0.022226
v -0.389018 0.395638 0.000000
v -0.348210 0.459191 0.225516
v -0.341867 0.395638 0.248381
v -0.322082 0.459191 0.261479
v -0.320989 0.462730 0.205739
v -0.294860 0.462730 0.241702
v -0.314722 0.395638 0.228659
v -0.149153 0.459191 0.387119
v -0.130582 0.395638 0.401889
v -0.106876 0.459191 0.400856
v -0.138755 0.462730 0.355119
v -0.096478 0.462730 0.368856
v -0.120213 0.395638 0.369978
v 0.106876 0.459191 0.400856
v 0.130582 0.395638 0.401889
v 0.149153 0.459191 0.387119
v 0.096478 0.462730 0.368856
v 0.138755 0.462730 0.355119
v 0.120213 0.395638 0.369978
v 0.322082 0.459191 0.261479
v 0.341867 0.395638 0.248381
v 0.348210 0.459191 0.225516
v 0.294860 0.462730 0.241702
v 0.320989 0.462730 0.205739
v 0.314722 0.395638 0.228659
v 0.414263 0.459191 0.022226
v 0.422571 0.395638 0.000000
v 0.414263 0.459191 -0.022226
v 0.380616 0.462730 0.022226
v 0.380616 0.462730 -0.022226
v 0.389018 0.395638 0.000000
vt 0.626409 0.064409
vt 0.548284 0.007647
vt 0.451716 0.007647
vt 0.373591 0.064409
vt 0.343750 0.156250
vt 0.373591 0.248091
vt 0.451716 0.304853
vt 0.548284 0.304853
vt 0.626409 0.248091
vt 0.656250 0.156250
vt 0.375000 0.312500
vt 0.400000 0.312500
vt 0.425000 0.312500
vt 0.450000 0.312500
vt 0.475000 0.312500
vt 0.500000 0.312500
vt 0.525000 0.312500
vt 0.550000 0.312500
vt 0.575000 0.312500
vt 0.600000 0.312500
vt 0.625000 0.312500
vt 0.375000 0.335056
vt 0.400000 0.335056
vt 0.425000 0.335056
vt 0.450000 0.335056
vt 0.475000 0.335056
vt 0.500000 0.335056
vt 0.525000 0.335056
vt 0.550000 0.335056
vt 0.575000 0.335056
vt 0.600000 0.335056
vt 0.400000 0.335056
vt 0.375000 0.335056
vt 0.425000 0.335056
vt 0.450000 0.335056
vt 0.475000 0.335056
vt 0.500000 0.335056
vt 0.525000 0.335056
vt 0.550000 0.335056
vt 0.575000 0.335056
vt 0.600000 0.335056
vt 0.625000 0.335056
vt 0.495555 0.695147
vt 0.583750 0.720915
vt 0.409058 0.726140
vt 0.639956 0.793602
vt 0.357297 0.802056
vt 0.642703 0.885444
vt 0.360044 0.893898
vt 0.590942 0.961360
vt 0.416250 0.966584
vt 0.504445 0.992353
vt 0.504445 0.695147
vt 0.590942 0.726140
vt 0.416249 0.720915
vt 0.642703 0.802056
vt 0.360044 0.793602
vt 0.639956 0.893898
vt 0.357297 0.885444
vt 0.583751 0.966585
vt 0.409058 0.961360
vt 0.495555 0.992353
vt 0.397760 0.688440
vt 0.388651 0.688440
vt 0.386349 0.688440
vt 0.563204 0.110329
vt 0.563204 0.741970
vt 0.422760 0.688440
vt 0.413651 0.688440
vt 0.411349 0.688440
vt 0.524142 0.081949
vt 0.524142 0.759593
vt 0.447760 0.688440
vt 0.438651 0.688440
vt 0.436349 0.688440
vt 0.475858 0.081949
vt 0.475858 0.759593
vt 0.472760 0.688440
vt 0.463651 0.688440
vt 0.461349 0.688440
vt 0.436796 0.110329
vt 0.436796 0.741970
vt 0.497760 0.688440
vt 0.488651 0.688440
vt 0.486349 0.688440
vt 0.421875 0.156250
vt 0.421875 0.713455
vt 0.522760 0.688440
vt 0.513651 0.688440
vt 0.511349 0.688440
vt 0.436796 0.202171
vt 0.436796 0.684940
vt 0.547760 0.688440
vt 0.538651 0.688440
vt 0.536349 0.688440
vt 0.475858 0.230551
vt 0.475858 0.667317
vt 0.572760 0.688440
vt 0.563651 0.688440
vt 0.561349 0.688440
vt 0.524142 0.230551
vt 0.524142 0.667317
vt 0.597760 0.688440
vt 0.588651 0.688440
vt 0.586349 0.688440
vt 0.625000 0.335056
vt 0.625000 0.600103
vt 0.622760 0.688440
vt 0.613651 0.688440
vt 0.611349 0.688440
vt 0.563204 0.202171
vt 0.563204 0.684940
vt 0.578125 0.156250
vt 0.578125 0.713455
vt 0.569919 0.869006
vt 0.619409 0.940678
vt 0.545626 0.902442
vt 0.541720 0.905280
vt 0.539631 0.992353
vt 0.502414 0.918051
vt 0.497586 0.918051
vt 0.444716 0.987266
vt 0.458280 0.905280
vt 0.454374 0.902442
vt 0.370917 0.927362
vt 0.430081 0.869006
vt 0.428589 0.864415
vt 0.346424 0.835521
vt 0.428589 0.823085
vt 0.430081 0.818494
vt 0.380591 0.746822
vt 0.454374 0.785058
vt 0.458280 0.782220
vt 0.460369 0.695147
vt 0.497586 0.769449
vt 0.502414 0.769448
vt 0.555284 0.700233
vt 0.541720 0.782220
vt 0.545626 0.785058
vt 0.629083 0.760138
vt 0.569919 0.818494
vt 0.571411 0.823085
vt 0.653576 0.851979
vt 0.571411 0.864415
vt 0.629083 0.927362
vt 0.559402 0.892433
vt 0.555284 0.987267
vt 0.519442 0.918051
vt 0.460369 0.992353
vt 0.472056 0.915289
vt 0.380591 0.940678
vt 0.435343 0.885201
vt 0.346424 0.851979
vt 0.423327 0.839280
vt 0.370917 0.760138
vt 0.440598 0.795067
vt 0.444716 0.700233
vt 0.480558 0.769449
vt 0.539631 0.695147
vt 0.527944 0.772211
vt 0.619409 0.746822
vt 0.564657 0.802299
vt 0.653576 0.835521
vt 0.576673 0.848220
vt 0.376943 0.688440
vt 0.375000 0.600103
vt 0.377240 0.688440
vt 0.564657 0.885201
vt 0.400000 0.600103
vt 0.402240 0.688440
vt 0.527944 0.915289
vt 0.425000 0.600103
vt 0.427240 0.688440
vt 0.480558 0.918051
vt 0.450000 0.600103
vt 0.452240 0.688440
vt 0.440598 0.892433
vt 0.475000 0.600103
vt 0.477240 0.688440
vt 0.423327 0.848220
vt 0.500000 0.600103
vt 0.502240 0.688440
vt 0.435343 0.802299
vt 0.525000 0.600103
vt 0.527240 0.688440
vt 0.472056 0.772211
vt 0.550000 0.600103
vt 0.552240 0.688440
vt 0.519442 0.769449
vt 0.575000 0.600103
vt 0.577240 0.688440
vt 0.559402 0.795067
vt 0.600000 0.600102
vt 0.602240 0.688440
vt 0.576673 0.839280
vn 0.000000 -1.000000 -0.000000
vn 0.000000 -1.000000 -0.000000
vn 0.139350 -0.892551 -0.428875
vn 0.364822 -0.892552 -0.265059
vn 0.000000 -1.000000 0.000000
vn -0.139350 -0.892552 -0.428874
vn 0.000000 -1.000000 0.000000
vn -0.364822 -0.892552 -0.265059
vn 0.000000 -1.000000 -0.000000
vn -0.450945 -0.892552 -0.000000
vn 0.000000 -1.000000 0.000000
vn -0.364821 -0.892552 0.265058
vn 0.000000 -1.000000 0.000001
vn -0.139349 -0.892552 0.428873
vn 0.000000 -1.000000 0.000001
vn 0.139349 -0.892552 0.428873
vn 0.000000 -1.000000 0.000000
vn 0.364822 -0.892552 0.265058
vn 0.000000 -1.000000 0.000000
vn 0.450945 -0.892552 -0.000000
vn 0.808928 0.014857 -0.587720
vn 0.308983 0.014856 -0.950952
vn 0.308981 0.015250 -0.950946
vn 0.584933 0.015433 -0.810935
vn 0.587727 0.014129 -0.808936
vn 0.587727 0.014129 -0.808936
vn 0.590491 0.015433 -0.806897
vn 0.808923 0.015250 -0.587717
vn -0.308983 0.014856 -0.950952
vn -0.308981 0.015250 -0.950946
vn -0.003435 0.015433 -0.999875
vn 0.000000 0.014129 -0.999900
vn 0.000000 0.014129 -0.999900
vn 0.003435 0.015433 -0.999875
vn -0.808928 0.014857 -0.587720
vn -0.808923 0.015250 -0.587717
vn -0.590491 0.015433 -0.806897
vn -0.587727 0.014130 -0.808936
vn -0.587727 0.014130 -0.808936
vn -0.584933 0.015433 -0.810935
vn -0.999890 0.014857 0.000000
vn -0.999884 0.015250 0.000000
vn -0.951999 0.015433 -0.305712
vn -0.950962 0.014130 -0.308986
vn -0.950962 0.014130 -0.308986
vn -0.949876 0.015433 -0.312245
vn -0.808928 0.014857 0.587720
vn -0.808923 0.015250 0.587717
vn -0.949876 0.015433 0.312245
vn -0.950962 0.014130 0.308986
vn -0.950962 0.014130 0.308986
vn -0.951999 0.015433 0.305712
vn -0.308983 0.014856 0.950952
vn -0.308981 0.015250 0.950946
vn -0.584933 0.015433 0.810935
vn -0.587727 0.014129 0.808936
vn -0.587727 0.014129 0.808936
vn -0.590490 0.015433 0.806897
vn 0.308983 0.014856 0.950952
vn 0.308981 0.015250 0.950946
vn 0.003435 0.015433 0.999875
vn 0.000000 0.014129 0.999900
vn 0.000000 0.014129 0.999900
vn -0.003434 0.015433 0.999875
vn 0.808928 0.014856 0.587720
vn 0.808923 0.015250 0.587717
vn 0.590491 0.015433 0.806897
vn 0.587727 0.014129 0.808936
vn 0.587727 0.014129 0.808936
vn 0.584933 0.015433 0.810935
vn 0.999890 0.014857 0.000000
vn 0.999884 0.015250 0.000000
vn 0.951999 0.015433 0.305712
vn 0.950962 0.014130 0.308986
vn 0.950962 0.014130 0.308986
vn 0.949876 0.015433 0.312245
vn 0.949876 0.015433 -0.312245
vn 0.950962 0.014130 -0.308986
vn 0.950962 0.014130 -0.308986
vn 0.951999 0.015433 -0.305712
vn -0.779721 0.476487 -0.406197
vn -0.779721 0.476487 -0.406197
vn -0.779721 0.476487 -0.406197
vn -0.779721 0.476487 -0.406197
vn -0.869564 0.476486 0.129691
vn -0.869564 0.476486 0.129691
vn -0.869564 0.476486 0.129691
vn -0.869564 0.476486 0.129691
vn -0.627261 0.476487 0.616039
vn -0.627261 0.476487 0.616039
vn -0.627261 0.476487 0.616039
vn -0.627261 0.476487 0.616039
vn -0.145368 0.476487 0.867081
vn -0.145368 0.476487 0.867081
vn -0.145368 0.476487 0.867081
vn -0.145368 0.476487 0.867081
vn 0.392053 0.476487 0.786928
vn 0.392053 0.476487 0.786928
vn 0.392053 0.476487 0.786928
vn 0.392053 0.476487 0.786928
vn 0.779720 0.476487 0.406198
vn 0.779720 0.476487 0.406198
vn 0.779720 0.476487 0.406198
vn 0.779720 0.476487 0.406198
vn 0.869563 0.476487 -0.129692
vn 0.869563 0.476487 -0.129692
vn 0.869563 0.476487 -0.129692
vn 0.869563 0.476487 -0.129692
vn 0.627262 0.476487 -0.616038
vn 0.627262 0.476487 -0.616038
vn 0.627262 0.476487 -0.616038
vn 0.627262 0.476487 -0.616038
vn 0.145367 0.476487 -0.867081
vn 0.145367 0.476487 -0.867081
vn 0.145367 0.476487 -0.867080
vn 0.145367 0.476487 -0.867081
vn -0.392053 0.476486 -0.786927
vn -0.392053 0.476486 -0.786927
vn -0.392053 0.476487 -0.786927
vn -0.392053 0.476487 -0.786927
vn -0.587740 -0.012380 0.808955
vn -0.587740 -0.012380 0.808955
vn -0.808945 -0.013380 0.587733
vn -0.590544 -0.013658 0.806890
vn -0.587740 -0.012380 0.808955
vn -0.587740 -0.012380 0.808955
vn -0.584910 -0.013658 0.810983
vn -0.308989 -0.013380 0.950971
vn -0.950984 -0.012380 0.308993
vn -0.950984 -0.012380 0.308993
vn -0.999911 -0.013380 -0.000000
vn -0.952038 -0.013658 0.305675
vn -0.950984 -0.012380 0.308993
vn -0.950984 -0.012380 0.308993
vn -0.949886 -0.013658 0.312298
vn -0.950984 -0.012380 -0.308993
vn -0.950984 -0.012380 -0.308993
vn -0.808945 -0.013380 -0.587733
vn -0.949886 -0.013658 -0.312298
vn -0.950984 -0.012380 -0.308993
vn -0.950984 -0.012380 -0.308993
vn -0.952038 -0.013658 -0.305675
vn -0.587740 -0.012380 -0.808955
vn -0.587740 -0.012380 -0.808955
vn -0.308989 -0.013380 -0.950971
vn -0.584910 -0.013658 -0.810983
vn -0.587740 -0.012380 -0.808955
vn -0.587740 -0.012380 -0.808955
vn -0.590544 -0.013658 -0.806890
vn -0.000000 -0.012380 -0.999923
vn -0.000000 -0.012380 -0.999923
vn 0.308989 -0.013380 -0.950971
vn 0.003482 -0.013658 -0.999901
vn -0.000000 -0.012380 -0.999923
vn -0.000000 -0.012380 -0.999923
vn -0.003482 -0.013658 -0.999901
vn 0.587740 -0.012380 -0.808955
vn 0.587740 -0.012380 -0.808955
vn 0.808945 -0.013380 -0.587733
vn 0.590544 -0.013658 -0.806890
vn 0.587740 -0.012380 -0.808955
vn 0.587740 -0.012380 -0.808955
vn 0.584910 -0.013658 -0.810983
vn 0.950984 -0.012380 -0.308993
vn 0.950984 -0.012380 -0.308993
vn 0.999911 -0.013380 -0.000000
vn 0.952038 -0.013658 -0.305675
vn 0.950984 -0.012380 -0.308993
vn 0.950984 -0.012380 -0.308993
vn 0.949886 -0.013658 -0.312298
vn 0.950984 -0.012380 0.308993
vn 0.950984 -0.012380 0.308993
vn 0.808945 -0.013380 0.587733
vn 0.949886 -0.013658 0.312298
vn 0.950984 -0.012380 0.308993
vn 0.950984 -0.012380 0.308993
vn 0.952038 -0.013658 0.305675
vn 0.587740 -0.012380 0.808955
vn 0.587740 -0.012380 0.808955
vn 0.308990 -0.013380 0.950971
vn 0.584910 -0.013658 0.810983
vn 0.587740 -0.012380 0.808955
vn 0.587740 -0.012380 0.808955
vn 0.590544 -0.013658 0.806890
vn 0.000000 -0.012380 0.999923
vn 0.000000 -0.012380 0.999923
vn -0.003482 -0.013658 0.999901
vn 0.000000 -0.012380 0.999923
vn 0.000000 -0.012380 0.999923
vn 0.003482 -0.013658 0.999901
vn 0.508381 -0.501927 -0.699727
vn 0.508381 -0.501927 -0.699727
vn -0.000000 -0.501927 -0.864910
vn -0.000000 -0.501927 -0.864910
vn -0.508381 -0.501927 -0.699727
vn -0.508381 -0.501927 -0.699727
vn -0.822579 -0.501926 -0.267272
vn -0.822579 -0.501926 -0.267272
vn -0.822578 -0.501928 0.267272
vn -0.822578 -0.501928 0.267272
vn -0.508380 -0.501929 0.699726
vn -0.508380 -0.501929 0.699726
vn 0.000000 -0.501928 0.864909
vn 0.000000 -0.501928 0.864909
vn 0.508381 -0.501927 0.699727
vn 0.508381 -0.501927 0.699727
vn 0.822579 -0.501926 0.267272
vn 0.822579 -0.501926 0.267272
vn 0.822578 -0.501928 -0.267272
vn 0.822578 -0.501928 -0.267272
vn 0.230258 0.666920 -0.708660
vn 0.602823 0.666919 -0.437976
vn 0.602823 0.666919 -0.437976
vn 0.230258 0.666920 -0.708660
vn -0.230258 0.666920 -0.708660
vn -0.230258 0.666920 -0.708660
vn -0.602823 0.666919 -0.437976
vn -0.602823 0.666919 -0.437977
vn -0.745131 0.666918 0.000000
vn -0.745131 0.666918 0.000000
vn -0.602823 0.666919 0.437977
vn -0.602823 0.666919 0.437977
vn -0.230258 0.666919 0.708661
vn -0.230258 0.666919 0.708661
vn 0.230258 0.666918 0.708661
vn 0.230258 0.666918 0.708661
vn 0.602823 0.666918 0.437977
vn 0.602823 0.666918 0.437977
vn 0.745131 0.666919 0.000000
vn 0.745131 0.666919 0.000000
vn -0.869564 0.476486 -0.129691
vn -0.869564 0.476486 -0.129691
vn -0.869564 0.476486 -0.129691
vn -0.869564 0.476486 -0.129691
vn -0.779720 0.476487 0.406198
vn -0.779720 0.476487 0.406198
vn -0.779720 0.476487 0.406198
vn -0.779720 0.476487 0.406198
vn -0.627262 0.476487 -0.616037
vn -0.627262 0.476487 -0.616037
vn -0.627262 0.476487 -0.616037
vn -0.627262 0.476487 -0.616037
vn -0.392052 0.476487 0.786928
vn -0.392052 0.476487 0.786928
vn -0.392052 0.476487 0.786928
vn -0.392052 0.476487 0.786928
vn -0.145368 0.476486 -0.867081
vn -0.145368 0.476486 -0.867081
vn -0.145368 0.476486 -0.867081
vn -0.145368 0.476486 -0.867081
vn 0.145368 0.476487 0.867080
vn 0.145368 0.476487 0.867080
vn 0.145368 0.476487 0.867080
vn 0.145368 0.476487 0.867080
vn 0.392053 0.476486 -0.786928
vn 0.392053 0.476486 -0.786928
vn 0.392053 0.476486 -0.786928
vn 0.392053 0.476486 -0.786928
vn 0.627262 0.476487 0.616038
vn 0.627262 0.476487 0.616038
vn 0.627262 0.476487 0.616038
vn 0.627262 0.476487 0.616038
vn 0.779720 0.476487 -0.406198
vn 0.779720 0.476487 -0.406198
vn 0.779720 0.476487 -0.406198
vn 0.779720 0.476487 -0.406198
vn 0.869564 0.476486 0.129691
vn 0.869564 0.476486 0.129691
vn 0.869564 0.476487 0.129691
vn 0.869564 0.476486 0.129691
vn -0.000000 0.998137 -0.061005
vn -0.000000 0.998137 -0.061005
vn -0.000000 0.998138 -0.061005
vn -0.000000 0.998138 -0.061005
vn -0.035858 0.998137 -0.049354
vn -0.035858 0.998137 -0.049354
vn -0.035858 0.998137 -0.049354
vn -0.035858 0.998137 -0.049354
vn 0.035858 0.998138 -0.049353
vn 0.035858 0.998138 -0.049353
vn 0.035858 0.998138 -0.049353
vn 0.035858 0.998138 -0.049353
vn -0.058020 0.998137 -0.018850
vn -0.058020 0.998137 -0.018850
vn -0.058020 0.998137 -0.018850
vn -0.058020 0.998137 -0.018850
vn 0.058020 0.998137 -0.018853
vn 0.058020 0.998137 -0.018853
vn 0.058020 0.998137 -0.018853
vn 0.058020 0.998137 -0.018853
vn -0.058020 0.998137 0.018853
vn -0.058020 0.998137 0.018853
vn -0.058020 0.998137 0.018853
vn -0.058020 0.998137 0.018853
vn 0.058020 0.998137 0.018850
vn 0.058020 0.998137 0.018850
vn 0.058020 0.998137 0.018850
vn 0.058020 0.998137 0.018850
vn -0.035858 0.998137 0.049356
vn -0.035858 0.998137 0.049356
vn -0.035858 0.998137 0.049356
vn -0.035858 0.998137 0.049356
vn 0.035858 0.998138 0.049354
vn 0.035858 0.998138 0.049354
vn 0.035858 0.998137 0.049354
vn 0.035858 0.998137 0.049354
vn 0.000000 0.998138 0.061005
vn 0.000000 0.998137 0.061005
vn 0.000000 0.998138 0.061005
vn 0.000000 0.998137 0.061005
vn 0.084628 0.994514 -0.061486
vn 0.084628 0.994514 -0.061486
vn 0.084628 0.994514 -0.061486
vn 0.084628 0.994514 -0.061486
vn 0.032326 0.994514 -0.099487
vn 0.032326 0.994514 -0.099487
vn 0.032326 0.994514 -0.099487
vn 0.032326 0.994514 -0.099487
vn -0.032326 0.994514 -0.099487
vn -0.032326 0.994514 -0.099487
vn -0.032326 0.994514 -0.099487
vn -0.032326 0.994514 -0.099487
vn -0.084628 0.994514 -0.061487
vn -0.084628 0.994514 -0.061487
vn -0.084628 0.994514 -0.061487
vn -0.084628 0.994514 -0.061487
vn -0.104607 0.994514 0.000000
vn -0.104607 0.994514 0.000000
vn -0.104607 0.994514 0.000000
vn -0.104607 0.994514 0.000000
vn -0.084629 0.994514 0.061486
vn -0.084629 0.994514 0.061486
vn -0.084629 0.994514 0.061486
vn -0.084629 0.994514 0.061486
vn -0.032326 0.994514 0.099487
vn -0.032326 0.994514 0.099487
vn -0.032326 0.994514 0.099487
vn -0.032326 0.994514 0.099487
vn 0.032326 0.994514 0.099487
vn 0.032326 0.994514 0.099487
vn 0.032326 0.994514 0.099487
vn 0.032326 0.994514 0.099487
vn 0.084629 0.994514 0.061486
vn 0.084629 0.994514 0.061486
vn 0.084629 0.994514 0.061486
vn 0.084629 0.994514 0.061486
vn 0.104607 0.994514 0.000000
vn 0.104607 0.994514 0.000000
vn 0.104607 0.994514 0.000000
vn 0.104607 0.994514 0.000000
s 1
g pCylinder19
usemtl initialShadingGroup
f 1/66/1 2/71/2 12/2/3 11/1/4
f 2/71/2 3/76/5 13/3/6 12/2/3
f 3/76/5 4/81/7 14/4/8 13/3/6
f 4/81/7 5/86/9 15/5/10 14/4/8
f 5/86/9 6/91/11 16/6/12 15/5/10
f 6/91/11 7/96/13 17/7/14 16/6/12
f 7/96/13 8/101/15 18/8/16 17/7/14
f 8/101/15 9/111/17 19/9/18 18/8/16
f 9/111/17 10/113/19 20/10/20 19/9/18
f 10/113/19 1/66/1 11/1/4 20/10/20
s 2
f 21/22/21 22/23/22 88/169/23 87/63/24 72/64/25 71/65/26 83/167/27 82/166/28
f 22/23/22 23/24/29 94/172/30 93/68/31 80/69/32 79/70/33 89/170/34 88/169/23
f 23/24/29 24/25/35 100/175/36 99/73/37 76/74/38 75/75/39 95/173/40 94/172/30
f 24/25/35 25/26/41 106/178/42 105/78/43 68/79/44 67/80/45 101/176/46 100/175/36
f 25/26/41 26/27/47 112/181/48 111/83/49 60/84/50 59/85/51 107/179/52 106/178/42
f 26/27/47 27/28/53 118/184/54 117/88/55 52/89/56 51/90/57 113/182/58 112/181/48
f 27/28/53 28/29/59 124/187/60 123/93/61 44/94/62 43/95/63 119/185/64 118/184/54
f 28/29/59 29/30/65 130/190/66 129/98/67 48/99/68 47/100/69 125/188/70 124/187/60
f 29/30/65 30/31/71 136/193/72 135/103/73 56/104/74 55/105/75 131/191/76 130/190/66
f 30/31/71 21/106/21 82/107/28 81/108/77 64/109/78 63/110/79 137/194/80 136/193/72
s off
f 69/118/81 72/60/82 87/147/83 90/171/84
f 77/121/85 80/62/86 93/149/87 96/174/88
f 73/124/89 76/61/90 99/151/91 102/177/92
f 65/127/93 68/59/94 105/153/95 108/180/96
f 57/130/97 60/57/98 111/155/99 114/183/100
f 49/133/101 52/55/102 117/157/103 120/186/104
f 41/136/105 44/53/106 123/159/107 126/189/108
f 45/139/109 48/54/110 129/161/111 132/192/112
f 53/142/113 56/56/114 135/163/115 138/195/116
f 61/115/117 64/58/118 81/145/119 84/168/120
s 3
f 2/71/121 1/66/122 86/67/123 85/146/124 70/117/125 69/118/126 90/171/127 92/72/128
f 1/66/129 10/113/130 140/114/131 139/164/132 62/144/133 61/115/134 84/168/135 86/67/123
f 10/113/136 9/111/137 134/112/138 133/162/139 54/141/140 53/142/141 138/195/142 140/114/131
f 9/111/143 8/101/144 128/102/145 127/160/146 46/138/147 45/139/148 132/192/149 134/112/138
f 8/101/150 7/96/151 122/97/152 121/158/153 42/135/154 41/136/155 126/189/156 128/102/145
f 7/96/157 6/91/158 116/92/159 115/156/160 50/132/161 49/133/162 120/186/163 122/97/152
f 6/91/164 5/86/165 110/87/166 109/154/167 58/129/168 57/130/169 114/183/170 116/92/159
f 5/86/171 4/81/172 104/82/173 103/152/174 66/126/175 65/127/176 108/180/177 110/87/166
f 4/81/178 3/76/179 98/77/180 97/150/181 74/123/182 73/124/183 102/177/184 104/82/173
f 3/76/185 2/71/186 92/72/128 91/148/187 78/120/188 77/121/189 96/174/190 98/77/180
s 1
f 12/12/3 31/32/191 32/33/192 11/11/4
f 13/13/6 33/34/193 31/32/194 12/12/3
f 14/14/8 34/35/195 33/34/196 13/13/6
f 15/15/10 35/36/197 34/35/198 14/14/8
f 16/16/12 36/37/199 35/36/200 15/15/10
f 17/17/14 37/38/201 36/37/202 16/16/12
f 18/18/16 38/39/203 37/38/204 17/17/14
f 19/19/18 39/40/205 38/39/206 18/18/16
f 20/20/20 40/41/207 39/40/208 19/19/18
f 11/21/4 32/42/209 40/41/210 20/20/20
s 12
f 22/23/211 21/22/212 32/33/213 31/32/214
f 23/24/215 22/23/211 31/32/214 33/34/216
f 24/25/217 23/24/215 33/34/216 34/35/218
f 25/26/219 24/25/217 34/35/218 35/36/220
f 26/27/221 25/26/219 35/36/220 36/37/222
f 27/28/223 26/27/221 36/37/222 37/38/224
f 28/29/225 27/28/223 37/38/224 38/39/226
f 29/30/227 28/29/225 38/39/226 39/40/228
f 30/31/229 29/30/227 39/40/228 40/41/230
f 21/106/212 30/31/229 40/41/230 32/42/213
s off
f 121/158/231 119/134/232 43/43/233 42/135/234
f 127/160/235 125/137/236 47/44/237 46/138/238
f 115/156/239 113/131/240 51/45/241 50/132/242
f 133/162/243 131/140/244 55/46/245 54/141/246
f 109/154/247 107/128/248 59/47/249 58/129/250
f 139/164/251 137/143/252 63/48/253 62/144/254
f 103/152/255 101/125/256 67/49/257 66/126/258
f 85/146/259 83/116/260 71/50/261 70/117/262
f 97/150/263 95/122/264 75/51/265 74/123/266
f 91/148/267 89/119/268 79/52/269 78/120/270
f 41/136/271 42/135/272 43/43/273 44/53/274
f 45/139/275 46/138/276 47/44/277 48/54/278
f 49/133/279 50/132/280 51/45/281 52/55/282
f 53/142/283 54/141/284 55/46/285 56/56/286
f 57/130/287 58/129/288 59/47/289 60/57/290
f 61/115/291 62/144/292 63/48/293 64/58/294
f 65/127/295 66/126/296 67/49/297 68/59/298
f 69/118/299 70/117/300 71/50/301 72/60/302
f 73/124/303 74/123/304 75/51/305 76/61/306
f 77/121/307 78/120/308 79/52/309 80/62/310
f 81/145/311 83/116/312 85/146/313 84/168/314
f 87/147/315 89/119/316 91/148/317 90/171/318
f 93/149/319 95/122/320 97/150/321 96/174/322
f 99/151/323 101/125/324 103/152/325 102/177/326
f 105/153/327 107/128/328 109/154/329 108/180/330
f 111/155/331 113/131/332 115/156/333 114/183/334
f 117/157/335 119/134/336 121/158/337 120/186/338
f 123/159/339 125/137/340 127/160/341 126/189/342
f 129/161/343 131/140/344 133/162/345 132/192/346
f 135/163/347 137/143/348 139/164/349 138/195/350
s 2
f 81/165/77 82/166/28 83/167/27
s 3
f 84/168/135 85/146/124 86/67/123
s 2
f 87/63/24 88/169/23 89/170/34
s 3
f 90/171/127 91/148/187 92/72/128
s 2
f 93/68/31 94/172/30 95/173/40
s 3
f 96/174/190 97/150/181 98/77/180
s 2
f 99/73/37 100/175/36 101/176/46
s 3
f 102/177/184 103/152/174 104/82/173
s 2
f 105/78/43 106/178/42 107/179/52
s 3
f 108/180/177 109/154/167 110/87/166
s 2
f 111/83/49 112/181/48 113/182/58
s 3
f 114/183/170 115/156/160 116/92/159
s 2
f 117/88/55 118/184/54 119/185/64
s 3
f 120/186/163 121/158/153 122/97/152
s 2
f 123/93/61 124/187/60 125/188/70
s 3
f 126/189/156 127/160/146 128/102/145
s 2
f 129/98/67 130/190/66 131/191/76
s 3
f 132/192/149 133/162/139 134/112/138
s 2
f 135/103/73 136/193/72 137/194/80
s 3
f 138/195/142 139/164/132 140/114/131
