# This file uses centimeters as units for non-parametric coordinates.

mtllib jameson_hair.mtl
g default
v -0.366514 0.370842 0.263270
v -0.392337 0.211010 0.285049
v -0.371081 0.174711 0.269606
v -0.183173 0.364936 0.275053
v -0.181924 0.409495 0.321165
v -0.175048 0.448015 0.335819
v -0.175048 0.448015 0.335819
v 0.000000 0.417120 0.375130
v -0.181924 0.409495 0.321165
v -0.183173 0.364936 0.275053
v 0.000000 0.313973 0.361943
v 0.000000 0.353366 0.382544
v 0.183173 0.364936 0.275053
v 0.181924 0.409495 0.321165
v 0.175048 0.448015 0.335819
v 0.340041 0.366965 -0.356461
v 0.129884 0.366965 -0.509149
v -0.129884 0.366965 -0.509149
v -0.340041 0.366965 -0.356461
v -0.428996 0.366965 0.000000
v 0.428996 0.366965 -0.000000
v 0.301159 0.484662 -0.347359
v 0.104828 0.466430 -0.470591
v -0.104828 0.466430 -0.470591
v -0.301159 0.484662 -0.347359
v -0.399788 0.535847 -0.003421
v -0.312973 0.571270 0.213341
v -0.129884 0.569120 0.302161
v 0.129884 0.569120 0.302161
v 0.312973 0.571270 0.213341
v 0.399788 0.535847 -0.003421
v 0.000000 0.174711 0.000000
v -0.000000 0.561035 -0.096016
v 0.000000 0.569120 0.329606
v 0.409574 0.115263 -0.348158
v 0.367502 0.069167 -0.304197
v 0.151530 0.112574 -0.505609
v 0.144204 0.084042 -0.463923
v -0.151530 0.112574 -0.505609
v -0.144014 0.084162 -0.463301
v -0.409574 0.115263 -0.348158
v -0.367502 0.069167 -0.304197
v -0.366514 0.370842 0.263270
v -0.469296 0.244295 0.000000
v -0.480042 0.211582 0.000000
v -0.452627 0.174711 0.000000
v -0.371081 0.174711 0.269606
v -0.183173 0.364936 0.275053
v 0.000000 0.313973 0.361943
v 0.183173 0.364936 0.275053
v 0.371081 0.174711 0.269606
v 0.452627 0.174711 0.000000
v 0.480042 0.211582 -0.000000
v 0.469296 0.244295 -0.000000
v 0.366514 0.370842 0.263270
v 0.175048 0.448015 0.335819
v 0.000000 0.417120 0.375130
v -0.175048 0.448015 0.335819
v 0.175048 0.448015 0.335819
v 0.183173 0.364936 0.275053
v 0.181924 0.409495 0.321165
v 0.371081 0.174711 0.269606
v 0.392337 0.211010 0.285049
v 0.366514 0.370842 0.263270
vt 0.500000 0.347990
vt 0.501232 0.319103
vt 0.524240 0.318212
vt 0.525000 0.406476
vt 0.525000 0.406476
vt 0.500000 0.500470
vt 0.525000 0.500470
vt 0.453523 0.304853
vt 0.455173 0.293765
vt 0.500000 0.293154
vt 0.497431 0.303558
vt 0.537500 0.375462
vt 0.537500 0.321806
vt 0.549499 0.312500
vt 0.550000 0.406476
vt 0.537500 0.500470
vt 0.550000 0.500470
vt 0.525000 0.406476
vt 0.525000 0.500470
vt 0.375000 0.500470
vt 0.400000 0.500470
vt 0.400000 0.688440
vt 0.375000 0.688440
vt 0.425000 0.500470
vt 0.425000 0.688440
vt 0.450000 0.500470
vt 0.450000 0.688440
vt 0.475000 0.500470
vt 0.475000 0.688440
vt 0.500000 0.500470
vt 0.500000 0.688440
vt 0.500000 0.500470
vt 0.525000 0.500470
vt 0.525000 0.688440
vt 0.537500 0.500470
vt 0.537500 0.688440
vt 0.550000 0.500470
vt 0.575000 0.500470
vt 0.575000 0.688440
vt 0.550000 0.688440
vt 0.575000 0.500470
vt 0.600000 0.500470
vt 0.600000 0.688440
vt 0.625000 0.500470
vt 0.625000 0.688440
vt 0.626409 0.935591
vt 0.548284 0.992353
vt 0.500000 0.837500
vt 0.451716 0.992353
vt 0.373591 0.935591
vt 0.343750 0.843750
vt 0.373591 0.751909
vt 0.451716 0.695147
vt 0.500000 0.695147
vt 0.548284 0.695147
vt 0.626409 0.751909
vt 0.656250 0.843750
vt 0.375000 0.336898
vt 0.375858 0.319816
vt 0.399111 0.319136
vt 0.400000 0.335240
vt 0.623777 0.319503
vt 0.625000 0.336898
vt 0.600000 0.348550
vt 0.600591 0.323350
vt 0.400792 0.316403
vt 0.424109 0.316475
vt 0.425000 0.335240
vt 0.425905 0.319258
vt 0.449142 0.319816
vt 0.450000 0.336898
vt 0.451223 0.319503
vt 0.474409 0.323350
vt 0.475000 0.348550
vt 0.475000 0.380534
vt 0.600000 0.380534
vt 0.600000 0.380534
vt 0.545064 0.017141
vt 0.617115 0.070702
vt 0.500000 0.150000
vt 0.454996 0.017316
vt 0.382885 0.070702
vt 0.356300 0.155748
vt 0.384037 0.239985
vt 0.356300 0.155748
vt 0.455173 0.293765
vt 0.544827 0.293765
vt 0.500000 0.293154
vt 0.615963 0.239985
vt 0.643700 0.155748
vt 0.643700 0.155748
vt 0.475000 0.380534
vt 0.550000 0.406476
vt 0.550760 0.318212
vt 0.573768 0.319103
vt 0.575000 0.347990
vt 0.575000 0.500470
vt 0.550000 0.500470
vt 0.575000 0.500470
vn 0.192154 -0.316774 0.928833
vn 0.398440 -0.491116 0.774629
vn 0.398440 -0.491116 0.774629
vn 0.015285 -0.268684 0.963107
vn -0.327038 0.169226 0.929736
vn -0.224457 -0.311236 0.923445
vn -0.388081 -0.333901 0.859013
vn -0.447614 -0.552244 0.703327
vn 0.000000 -0.617566 0.786519
vn 0.000000 -0.400890 0.916126
vn 0.447615 -0.552244 0.703327
vn 0.388081 -0.333901 0.859013
vn 0.000000 -0.050928 0.998702
vn 0.282166 -0.048859 0.958121
vn -0.282166 -0.048859 0.958121
vn 0.781089 0.200359 -0.591401
vn 0.284094 0.116084 -0.951743
vn 0.274194 0.357035 -0.892941
vn 0.834944 0.277084 -0.475493
vn -0.284094 0.116084 -0.951743
vn -0.274194 0.357035 -0.892941
vn -0.781090 0.200359 -0.591401
vn -0.834944 0.277084 -0.475493
vn -0.963612 0.266508 -0.020644
vn -0.968985 0.246950 0.009201
vn -0.821778 0.304431 0.481667
vn -0.770459 0.314388 0.554575
vn -0.352469 0.336285 0.873315
vn -0.312174 0.329103 0.891201
vn 0.000000 0.305431 0.952214
vn 0.000000 0.305431 0.952214
vn 0.352469 0.336285 0.873314
vn 0.821778 0.304431 0.481667
vn 0.770459 0.314388 0.554575
vn 0.312174 0.329103 0.891201
vn 0.963612 0.266507 -0.020644
vn 0.968985 0.246950 0.009201
vn 0.081531 0.976591 -0.199055
vn 0.028075 0.971009 -0.237388
vn -0.000000 0.988451 -0.151539
vn -0.028075 0.971009 -0.237388
vn -0.081531 0.976591 -0.199056
vn -0.096873 0.983833 -0.150628
vn -0.038540 0.996662 -0.071966
vn 0.012782 0.999788 -0.016132
vn -0.000000 0.999820 -0.018992
vn -0.012782 0.999788 -0.016132
vn 0.038540 0.996662 -0.071966
vn 0.096873 0.983833 -0.150628
vn 0.804741 -0.052498 -0.591300
vn 0.111264 -0.987229 0.114016
vn -0.011333 -0.999731 -0.020217
vn 0.298344 -0.116299 -0.947347
vn 0.974009 0.072291 -0.214664
vn 0.157238 -0.974502 0.160071
vn 0.011425 -0.999740 -0.019722
vn -0.298366 -0.116616 -0.947301
vn -0.111362 -0.987231 0.113898
vn -0.804678 -0.053150 -0.591328
vn -0.157238 -0.974502 0.160071
vn -0.974009 0.072291 -0.214664
vn -0.941686 0.273662 -0.195797
vn 0.941686 0.273662 -0.195797
vn -0.000020 -0.953681 0.300820
vn 0.228766 -0.921153 0.314870
vn 0.245590 -0.799277 0.548490
vn -0.245590 -0.799277 0.548490
vn 0.000000 -0.933300 0.359099
vn -0.228767 -0.921153 0.314870
vn -0.015285 -0.268684 0.963107
vn -0.398440 -0.491116 0.774629
vn -0.398440 -0.491116 0.774629
vn -0.192154 -0.316774 0.928833
vn 0.327039 0.169226 0.929735
vn 0.224457 -0.311238 0.923445
s 1
g polySurface59
usemtl initialShadingGroup
f 2/1/1 3/2/2 4/3/3 5/4/4
f 2/1/1 5/5/4 1/6/5
f 1/6/5 5/4/4 6/7/6
s 2
f 9/8/7 10/9/8 11/10/9 12/11/10
f 12/12/10 11/13/9 13/14/11 14/15/12
f 8/16/13 12/12/10 14/15/12 15/17/14
f 9/18/7 12/12/10 8/16/13 7/19/15
s 3
f 16/20/16 17/21/17 23/22/18 22/23/19
f 17/21/17 18/24/20 24/25/21 23/22/18
f 18/24/20 19/26/22 25/27/23 24/25/21
f 19/26/22 20/28/24 26/29/25 25/27/23
f 20/28/24 43/30/26 27/31/27 26/29/25
f 43/32/26 58/33/28 28/34/29 27/31/27
f 58/33/28 57/35/30 34/36/31 28/34/29
f 56/37/32 55/38/33 30/39/34 29/40/35
f 55/41/33 21/42/36 31/43/37 30/39/34
f 21/42/36 16/44/16 22/45/19 31/43/37
s 5
f 22/46/38 23/47/39 33/48/40
f 23/47/39 24/49/41 33/48/40
f 24/49/41 25/50/42 33/48/40
f 25/50/42 26/51/43 33/48/40
f 26/51/43 27/52/44 33/48/40
f 27/52/44 28/53/45 33/48/40
f 28/53/45 34/54/46 33/48/40
f 29/55/47 30/56/48 33/48/40
f 30/56/48 31/57/49 33/48/40
f 31/57/49 22/46/38 33/48/40
s 3
f 34/36/31 57/35/30 56/37/32 29/40/35
f 35/58/50 36/59/51 38/60/52 37/61/53
f 36/62/51 35/63/50 53/64/54 52/65/55
f 37/61/53 38/66/52 40/67/56 39/68/57
f 39/68/57 40/69/56 42/70/58 41/71/59
f 41/71/59 42/72/58 46/73/60 45/74/61
f 35/58/50 37/61/53 17/21/17 16/20/16
f 37/61/53 39/68/57 18/24/20 17/21/17
f 39/68/57 41/71/59 19/26/22 18/24/20
f 41/71/59 45/74/61 44/75/62 19/26/22
f 55/38/33 54/76/63 21/42/36
f 54/77/63 16/44/16 21/42/36
f 38/78/52 36/79/51 32/80/64
f 40/81/56 38/78/52 32/80/64
f 42/82/58 40/81/56 32/80/64
f 46/83/60 42/82/58 32/80/64
f 47/84/65 46/85/60 32/80/64
f 48/86/66 47/84/65 32/80/64
f 50/87/67 49/88/68 48/86/66 32/80/64
f 51/89/69 50/87/67 32/80/64
f 52/90/55 51/89/69 32/80/64
f 36/79/51 52/91/55 32/80/64
s 5
f 33/48/40 34/54/46 29/55/47
s 3
f 44/75/62 43/32/26 20/28/24
f 19/26/22 44/92/62 20/28/24
f 53/64/54 35/63/50 16/44/16 54/76/63
s 8
f 61/93/70 60/94/71 62/95/72 63/96/73
f 61/93/70 64/97/74 59/98/75
f 61/93/70 63/96/73 64/99/74
g default
v 0.366514 0.370842 0.263270
v -0.480042 0.211582 0.000000
v -0.452627 0.174711 0.000000
v 0.392337 0.211010 0.285049
v 0.371081 0.174711 0.269606
v 0.480042 0.211582 -0.000000
v 0.452627 0.174711 0.000000
v -0.469296 0.244295 0.000000
v 0.469296 0.244295 -0.000000
v -0.371081 0.174711 0.269606
v -0.392337 0.211010 0.285049
v -0.366514 0.370842 0.263270
vt 0.475000 0.348550
vt 0.476164 0.322759
vt 0.575000 0.347990
vt 0.575970 0.325423
vt 0.598836 0.322759
vt 0.600000 0.348550
vt 0.475000 0.380534
vt 0.575000 0.500470
vt 0.600000 0.380534
vt 0.499030 0.325423
vt 0.500000 0.347990
vt 0.500000 0.500470
vn -0.958016 -0.023881 0.285720
vn -0.784534 -0.572257 0.238808
vn -0.784534 -0.572257 0.238808
vn -0.958071 -0.021578 0.285717
vn 0.958071 -0.021578 0.285717
vn 0.784534 -0.572257 0.238808
vn 0.784534 -0.572257 0.238808
vn 0.958016 -0.023882 0.285720
vn -0.937584 0.209471 0.277593
vn -0.937584 0.209471 0.277593
vn 0.937584 0.209470 0.277593
vn 0.937584 0.209470 0.277593
s 1
g polySurface61 polySurface58 polySurface56 pCylinder23
usemtl initialShadingGroup
f 66/100/76 67/101/77 74/109/78 75/110/79
s 2
f 68/102/80 69/103/81 71/104/82 70/105/83
s 1
f 66/100/76 75/110/79 76/111/84 72/106/85
s 2
f 68/102/80 70/105/83 73/108/86 65/107/87
