# This file uses centimeters as units for non-parametric coordinates.

mtllib weezytrout.mtl
g default
v -0.524131 0.542619 -0.220830
v -0.397759 0.526161 -0.242174
v -0.525313 0.527336 -0.220867
v -0.396578 0.543231 -0.242137
v -0.402987 0.509117 -0.136040
v -0.403400 0.560251 -0.137672
v -0.274893 0.520901 -0.220222
v -0.302580 0.562926 -0.121924
v -0.273712 0.548733 -0.220186
v -0.302167 0.505812 -0.120293
v -0.212619 0.555226 -0.262770
v -0.191003 0.601841 -0.206752
v -0.213800 0.514823 -0.262806
v -0.334848 0.559665 0.023314
v -0.243632 0.580844 -0.147816
v -0.025008 0.579988 -0.283843
v -0.025008 0.524076 -0.283843
v -0.185248 0.466658 -0.195526
v -0.243219 0.487723 -0.146184
v -0.205462 0.579776 -0.063355
v -0.334435 0.508531 0.024946
v -0.027829 0.644707 -0.219185
v -0.131628 0.600292 -0.063231
v -0.267417 0.562271 -0.033912
v -0.205049 0.486656 -0.061723
v -0.267004 0.505157 -0.032280
v 0.091358 0.644707 -0.185756
v -0.033472 0.644707 -0.089842
v -0.175612 0.546598 0.003781
v -0.224089 0.541922 0.103285
v -0.134909 0.465109 -0.071025
v -0.027829 0.459357 -0.219185
v -0.344629 0.526163 0.191249
v 0.122601 0.579988 -0.242435
v -0.225270 0.524852 0.103249
v -0.176793 0.518767 0.003744
v -0.343448 0.541447 0.191286
v -0.036294 0.579988 -0.025185
v -0.112370 0.552127 -0.026497
v 0.122601 0.524076 -0.242435
v -0.113551 0.511724 -0.026534
v -0.002385 0.579988 -0.015697
v 0.028858 0.644707 -0.072376
v -0.033472 0.459357 -0.089842
v 0.100331 0.652443 0.032875
v -0.036294 0.524076 -0.025185
v 0.091358 0.459357 -0.185756
v 0.259431 0.652443 -0.040052
v 0.007279 0.581854 0.020174
v 0.028858 0.459357 -0.072376
v -0.002385 0.524076 -0.015697
v 0.020797 0.582321 0.069332
v 0.007279 0.563961 0.020174
v -0.051375 0.563961 0.070738
v 0.020797 0.563200 0.069332
v 0.007279 0.551435 0.020174
v 0.020797 0.550596 0.069332
v -0.051375 0.551435 0.070738
v -0.040284 0.564148 0.129441
v -0.040284 0.551426 0.129441
v 0.338965 0.582321 -0.076509
v 0.259431 0.451621 -0.040052
v 0.100331 0.451621 0.032875
v 0.028794 0.564148 0.118118
v 0.007279 0.522209 0.020174
v 0.128281 0.652443 0.191298
v 0.028794 0.551426 0.118118
v 0.028794 0.582321 0.118118
v 0.020797 0.521743 0.069332
v 0.338965 0.521743 -0.076509
v 0.040789 0.582321 0.191298
v 0.359694 0.582321 0.030614
v 0.128281 0.451621 0.191298
v 0.028794 0.521743 0.118118
v 0.128281 0.582321 0.297016
v 0.040789 0.521743 0.191298
v 0.303298 0.652443 0.191298
v 0.359695 0.521743 0.030614
v 0.128281 0.521743 0.297016
v 0.390789 0.582321 0.191298
v 0.303298 0.451621 0.191298
v 0.128281 0.466115 0.265305
v 0.303298 0.582321 0.297016
v 0.390789 0.521743 0.191298
v 0.303298 0.521743 0.297016
v 0.303298 0.466115 0.265305
v 0.338965 0.551426 -0.076509
v 0.338965 0.564148 -0.076509
v 0.412791 0.564148 -0.057632
v 0.412791 0.551426 -0.057632
v 0.359695 0.564148 0.030614
v 0.359695 0.551426 0.030614
v 0.426303 0.564148 0.000697
v 0.426303 0.551426 0.000697
v 0.324753 0.528153 0.271091
v 0.338848 0.533998 0.254059
v 0.092731 0.533998 0.254059
v 0.106826 0.528153 0.271091
v 0.303298 0.540601 0.306100
v 0.128281 0.540601 0.306100
v 0.128281 0.531789 0.297016
v 0.303298 0.531789 0.297016
vt 0.625000 0.187506
vt 0.625000 0.062494
vt 0.625000 0.062494
vt 0.625000 0.187506
vt 0.562506 0.000000
vt 0.562506 0.250000
vt 0.625000 0.062494
vt 0.562506 0.250000
vt 0.625000 0.187506
vt 0.562506 0.000000
vt 0.625000 0.187506
vt 0.562506 0.250000
vt 0.625000 0.062494
vt 0.437494 0.250000
vt 0.562506 0.250000
vt 0.625000 0.281253
vt 0.687500 0.062494
vt 0.562506 0.000000
vt 0.562506 0.000000
vt 0.437494 0.250000
vt 0.437494 0.000000
vt 0.562506 0.312500
vt 0.437494 0.250000
vt 0.687500 0.187506
vt 0.437494 0.250000
vt 0.625000 1.000000
vt 0.625000 0.921877
vt 0.562506 1.000000
vt 0.437494 0.000000
vt 0.437494 0.000000
vt 0.562506 0.375000
vt 0.437494 0.312500
vt 0.375000 0.187506
vt 0.375000 0.187506
vt 0.437494 0.000000
vt 0.562506 0.937500
vt 0.375000 0.062494
vt 0.625000 0.375000
vt 0.375000 0.062494
vt 0.375000 0.062494
vt 0.375000 0.187506
vt 0.437494 1.000000
vt 0.375000 0.281253
vt 0.375000 0.187506
vt 0.625000 0.843753
vt 0.375000 0.062494
vt 0.375000 0.375000
vt 0.437494 0.375000
vt 0.437494 0.937500
vt 0.437494 0.437500
vt 0.312500 0.062494
vt 0.312500 0.187506
vt 0.375000 1.000000
vt 0.562506 0.875000
vt 0.562506 0.437500
vt 0.375000 0.921877
vt 0.375000 0.449997
vt 0.437494 0.875000
vt 0.375000 0.843753
vt 0.375000 0.468747
vt 0.200000 0.150002
vt 0.195852 0.149558
vt 0.187500 0.148047
vt 0.200000 0.123750
vt 0.187500 0.122038
vt 0.195528 0.123985
vt 0.162500 0.150002
vt 0.162500 0.123750
vt 0.625000 0.468747
vt 0.562506 0.812500
vt 0.437494 0.812500
vt 0.162500 0.150002
vt 0.375000 0.781254
vt 0.437494 0.500000
vt 0.162500 0.123750
vt 0.375000 0.506246
vt 0.375000 0.765630
vt 0.625000 0.765630
vt 0.375000 0.562494
vt 0.625000 0.506246
vt 0.437494 0.750000
vt 0.375000 0.734380
vt 0.437494 0.587294
vt 0.375000 0.687506
vt 0.562506 0.500000
vt 0.625000 0.734380
vt 0.437494 0.662706
vt 0.625000 0.562494
vt 0.562506 0.750000
vt 0.437494 0.706353
vt 0.562506 0.587294
vt 0.625000 0.687506
vt 0.562506 0.662706
vt 0.562506 0.706353
vt 0.750000 0.187506
vt 0.750000 0.062494
vt 0.250000 0.187506
vt 0.250000 0.062494
vt 0.187500 0.187506
vt 0.200000 0.187506
vt 0.200000 0.062494
vt 0.187500 0.062494
vt 0.162500 0.187506
vt 0.162500 0.062494
vt 0.812500 0.123750
vt 0.812500 0.150002
vt 0.812500 0.150002
vt 0.812500 0.123750
vt 0.812500 0.187506
vt 0.837500 0.187506
vt 0.837500 0.150002
vt 0.837500 0.123750
vt 0.837500 0.062494
vt 0.812500 0.062494
vt 0.837500 0.150002
vt 0.837500 0.123750
vt 0.422169 0.000000
vt 0.412101 0.250000
vt 0.587899 0.250000
vt 0.577831 0.000000
vt 0.562506 0.639230
vt 0.437494 0.639230
vt 0.437494 0.279750
vt 0.562506 0.279750
vt 0.577831 1.000000
vt 0.562506 0.981301
vt 0.437494 0.981301
vt 0.422169 1.000000
vt 0.562506 0.650200
vt 0.437494 0.650200
vt 0.125000 0.062494
vt 0.125000 0.187506
vt 0.875000 0.187506
vt 0.875000 0.062494
vt 0.422169 0.659177
vt 0.412101 0.653288
vt 0.587899 0.653288
vt 0.577831 0.659177
vn 0.026170 0.002044 -0.999655
vn -0.164710 0.014274 -0.986239
vn -0.164710 0.014274 -0.986239
vn 0.040454 0.001123 -0.999181
vn -0.916496 0.012784 0.399839
vn -0.916496 0.012784 0.399839
vn -0.916496 0.012784 0.399839
vn -0.916496 0.012784 0.399839
vn -0.916496 0.012784 0.399839
vn -0.916496 0.012784 0.399839
vn -0.916496 0.012784 0.399839
vn -0.916496 0.012784 0.399840
vn -0.041677 0.985296 -0.165693
vn -0.018145 0.986635 -0.161932
vn -0.020649 0.993155 -0.114964
vn -0.090285 0.994695 -0.049294
vn -0.026955 -0.992964 -0.115305
vn -0.023245 -0.986903 -0.159632
vn -0.045616 -0.985305 -0.164600
vn -0.097414 -0.993699 -0.055429
vn -0.200506 0.006534 -0.979671
vn -0.220897 0.007306 -0.975270
vn -0.256856 0.938661 -0.230088
vn -0.257891 0.965634 -0.032302
vn -0.242753 -0.942204 -0.230919
vn -0.262052 -0.963292 -0.058295
vn -0.305631 0.911641 -0.274774
vn -0.296037 0.779009 -0.552727
vn -0.202909 0.005456 -0.979182
vn -0.217358 0.006044 -0.976073
vn 0.045266 0.995086 0.088064
vn -0.007356 0.994209 0.107212
vn -0.030567 0.733425 -0.679083
vn -0.004338 0.731183 -0.682168
vn 0.071996 0.000929 -0.997405
vn 0.083378 0.000877 -0.996518
vn -0.193683 -0.813004 -0.549101
vn -0.182557 -0.809149 -0.558526
vn -0.137224 0.965126 0.222940
vn 0.035562 -0.995712 0.085402
vn -0.020744 -0.994473 0.102925
vn -0.246257 0.923524 0.294042
vn -0.198465 0.979183 0.042563
vn -0.194662 0.979982 0.041748
vn 0.043601 -0.742355 -0.668586
vn 0.046819 -0.741592 -0.669216
vn -0.141101 -0.965165 0.220334
vn 0.348117 0.721024 -0.599116
vn 0.349560 0.721135 -0.598140
vn 0.048117 0.935317 0.350524
vn 0.074027 0.987892 0.136343
vn 0.074394 0.990377 0.116701
vn -0.121211 -0.992015 0.034839
vn -0.110262 -0.993453 0.029894
vn -0.099049 0.709067 0.698150
vn 0.063316 -0.988723 0.135711
vn 0.065147 -0.991138 0.115766
vn 0.038140 -0.939002 0.341792
vn -0.029671 -0.999558 0.001601
vn -0.029321 -0.999569 0.001583
vn -0.172685 0.666471 0.725256
vn -0.175381 0.670617 0.720773
vn 0.349560 -0.721135 -0.598140
vn 0.348117 -0.721024 -0.599116
vn 0.051870 -0.756623 0.651791
vn 0.059282 -0.748102 0.660931
vn 0.700990 -0.033605 0.712379
vn 0.695145 -0.033205 0.718102
vn 0.776460 -0.047978 0.628338
vn 0.769245 -0.047915 0.637155
vn 0.172584 -0.006848 0.984971
vn 0.133185 -0.005465 0.991076
vn -0.537238 0.740576 0.403637
vn -0.514535 0.742616 0.428691
vn 0.592719 -0.045094 0.804146
vn 0.592719 -0.045094 0.804146
vn -0.019590 0.999537 -0.023301
vn -0.020260 0.999504 -0.024097
vn -0.011878 0.999830 -0.014128
vn -0.011192 0.999849 -0.013312
vn -0.100469 -0.000115 0.994940
vn -0.121093 -0.000101 0.992641
vn -0.019912 -0.709103 0.704824
vn -0.029215 -0.709033 0.704570
vn 0.542353 0.771303 -0.333085
vn 0.552544 0.773453 -0.310590
vn -0.632255 0.754246 0.177104
vn -0.636009 0.719428 0.279133
vn -0.631565 0.756918 0.167929
vn -0.514535 -0.742616 0.428691
vn -0.537238 -0.740576 0.403637
vn 0.006396 0.999972 -0.003790
vn 0.006396 0.999972 -0.003790
vn 0.006396 0.999972 -0.003790
vn 0.006396 0.999972 -0.003790
vn 0.006396 0.999972 -0.003790
vn -0.007295 -0.999972 0.001484
vn -0.007295 -0.999972 0.001484
vn -0.007295 -0.999972 0.001484
vn -0.007295 -0.999972 0.001484
vn -0.007295 -0.999972 0.001484
vn 0.542353 -0.771303 -0.333085
vn 0.552544 -0.773453 -0.310590
vn -0.011878 -0.999830 -0.014128
vn -0.020260 -0.999504 -0.024098
vn -0.019590 -0.999537 -0.023301
vn -0.011192 -0.999849 -0.013312
vn -0.636009 -0.719428 0.279133
vn -0.632255 -0.754246 0.177104
vn -0.631565 -0.756918 0.167929
vn -0.625552 0.772816 0.106960
vn -0.625552 0.772816 0.106960
vn -0.625552 0.772816 0.106960
vn 0.623015 0.773037 -0.119437
vn 0.623015 0.773037 -0.119437
vn 0.623015 0.773037 -0.119437
vn -0.625552 -0.772816 0.106961
vn -0.625552 -0.772816 0.106961
vn -0.625552 -0.772816 0.106961
vn -0.747922 0.276310 0.603544
vn -0.757874 0.230284 0.610407
vn -0.555413 0.692990 0.459653
vn 0.623015 -0.773037 -0.119437
vn 0.623015 -0.773037 -0.119437
vn 0.623015 -0.773037 -0.119437
vn -0.792462 -0.250261 0.556214
vn -0.793682 -0.231910 0.562394
vn -0.706191 -0.590027 0.391360
vn -0.706191 -0.590028 0.391360
vn 0.747923 0.276310 0.603543
vn 0.555413 0.692990 0.459653
vn 0.757874 0.230284 0.610406
vn 0.706191 -0.590028 0.391360
vn 0.793682 -0.231910 0.562394
vn 0.792462 -0.250261 0.556213
vn 0.706191 -0.590028 0.391359
vn 0.498503 0.000000 -0.866888
vn 0.498503 0.000000 -0.866888
vn -0.733678 0.000000 0.679498
vn -0.733678 0.000000 0.679498
vn -0.652946 0.000000 -0.757404
vn -0.652946 0.000000 -0.757404
vn -0.652946 0.000000 -0.757404
vn -0.652946 0.000000 -0.757404
vn -0.976790 0.000000 0.214198
vn -0.965146 0.000000 0.261711
vn -0.965325 0.000000 0.261052
vn -0.976742 0.000000 0.214419
vn -0.982618 0.000000 0.185638
vn -0.982618 0.000000 0.185638
vn -0.982618 0.000000 0.185638
vn -0.982618 0.000000 0.185638
vn -0.976760 0.000001 0.214336
vn -0.965226 0.000000 0.261416
vn -0.965005 0.000000 0.262230
vn -0.976792 0.000001 0.214190
vn -0.986830 0.000000 0.161762
vn -0.986830 0.000000 0.161762
vn 0.161757 0.000000 0.986831
vn 0.161757 0.000000 0.986831
vn 0.161757 0.000000 0.986831
vn 0.161757 0.000000 0.986831
vn -0.986830 0.000000 0.161761
vn -0.986830 0.000000 0.161762
vn -0.000000 1.000000 -0.000000
vn -0.000000 1.000000 -0.000000
vn 0.247712 0.000000 -0.968834
vn 0.247712 0.000000 -0.968834
vn 0.247712 0.000000 -0.968834
vn 0.247712 0.000000 -0.968834
vn 0.667030 0.000000 -0.745031
vn 0.981786 0.000000 -0.189992
vn 0.981786 0.000000 -0.189992
vn 0.639445 0.000000 -0.768837
vn 0.657127 0.000000 -0.753780
vn 0.981786 0.000000 -0.189992
vn 0.981786 0.000000 -0.189992
vn 0.697302 0.000000 -0.716777
vn 0.000000 1.000000 0.000001
vn 0.000000 1.000000 0.000001
vn 0.000000 1.000000 0.000001
vn 0.000000 1.000000 0.000001
vn -0.000000 -1.000000 -0.000001
vn -0.000000 -1.000000 -0.000001
vn -0.000000 -1.000000 -0.000001
vn -0.000000 -1.000000 -0.000001
vn 0.974205 0.000000 -0.225664
vn 0.974205 0.000000 -0.225664
vn 0.974205 0.000000 -0.225664
vn 0.974205 0.000000 -0.225664
vn 0.000000 -1.000000 0.000000
vn 0.000000 -1.000000 0.000000
vn -0.000000 0.833347 0.552751
vn -0.000000 0.833347 0.552751
vn -0.000000 0.833347 0.552751
vn -0.000000 0.833347 0.552751
vn 0.409717 0.000000 0.912213
vn 0.409717 0.000000 0.912213
vn 0.409717 0.000000 0.912213
vn 0.409717 0.000000 0.912213
vn 0.000000 0.984203 0.177046
vn 0.000000 0.945863 0.324567
vn 0.000000 0.945863 0.324567
vn 0.000000 0.984203 0.177046
vn -0.000000 0.212770 0.977102
vn -0.000000 0.212770 0.977102
vn -0.000000 0.212770 0.977102
vn -0.000000 0.212770 0.977102
vn 0.000000 -0.992045 0.125888
vn 0.000000 -0.992045 0.125888
vn 0.000000 -0.992045 0.125888
vn 0.000000 -0.992045 0.125888
vn 0.000000 0.990308 -0.138892
vn 0.000000 0.990308 -0.138892
vn 0.000000 -0.981357 0.192194
vn 0.000000 -0.981357 0.192194
vn 0.000000 -0.833347 0.552750
vn 0.000000 -0.833347 0.552750
vn 0.000000 0.000000 1.000000
vn 0.000000 0.000000 1.000000
vn 0.000000 0.000000 1.000000
vn 0.000000 0.000000 1.000000
vn 0.000000 -0.495236 0.868758
vn 0.000000 -0.495236 0.868758
vn -0.986830 0.000000 0.161762
vn -0.986830 0.000000 0.161762
vn 0.981786 0.000000 -0.189992
vn 0.981786 0.000000 -0.189992
vn -0.781139 0.019935 0.624038
vn -0.781139 0.019935 0.624038
vn -0.781139 0.019935 0.624038
vn -0.781139 0.019935 0.624038
vn 0.781140 0.019935 0.624038
vn 0.781140 0.019935 0.624038
vn 0.781140 0.019935 0.624038
vn 0.781140 0.019935 0.624038
s 1
g pCube22
usemtl initialShadingGroup
f 2/2/1 3/3/2 1/1/3 4/4/4
s off
f 14/14/5 6/6/6 1/1/7 3/3/8 5/5/9 21/21/10 33/37/11 37/41/12
s 2
f 4/4/13 1/1/14 6/6/15 8/8/16
s 3
f 5/5/17 3/3/18 2/2/19 10/10/20
s 1
f 7/7/21 2/2/1 4/4/4 9/9/22
s 2
f 9/9/23 4/4/13 8/8/16 15/15/24
s 3
f 10/10/20 2/2/19 7/7/25 19/19/26
s 2
f 12/12/27 11/11/28 9/9/23 15/15/24
s 1
f 9/9/22 11/11/29 13/13/30 7/7/21
s 2
f 8/8/16 6/6/15 14/14/31 24/25/32
f 16/16/33 11/11/28 12/12/27 22/22/34
s 1
f 17/17/35 13/13/30 11/11/29 16/24/36
s 3
f 7/7/25 13/13/37 18/18/38 19/19/26
s 2
f 20/20/39 15/15/24 8/8/16 24/25/32
s 3
f 21/21/40 5/5/17 10/10/20 26/30/41
s 2
f 23/23/42 12/12/27 15/15/24 20/20/39
f 22/22/43 12/12/27 23/23/42 28/32/44
s 3
f 18/28/38 13/26/37 17/27/45 32/36/46
f 10/10/20 19/19/26 25/29/47 26/30/41
s 2
f 16/16/33 22/22/34 27/31/48 34/38/49
f 29/33/50 20/20/39 24/25/32 30/34/51
f 30/34/51 24/25/32 14/14/31 37/41/52
s 3
f 19/19/26 18/18/53 31/35/54 25/29/47
s 2
f 23/23/42 20/20/39 29/33/50 39/44/55
s 3
f 21/21/40 26/30/41 35/39/56 33/37/57
f 26/30/41 25/29/47 36/40/58 35/39/56
f 31/42/54 18/28/53 32/36/59 44/49/60
s 2
f 38/43/61 28/32/62 23/23/42 39/44/55
s 3
f 32/36/46 17/27/45 40/45/63 47/54/64
f 36/40/58 25/29/47 31/35/65 41/46/66
s 4
f 36/40/67 29/33/68 30/34/69 35/39/70
f 29/33/68 36/40/67 41/46/71 39/44/72
s 2
f 42/47/73 43/48/74 28/32/62 38/43/61
s 4
f 37/41/75 33/37/76 35/39/70 30/34/69
s 2
f 27/31/77 43/48/78 45/50/79 48/55/80
s 4
f 39/44/72 41/46/71 46/51/81 38/52/82
s 3
f 41/53/66 31/42/65 44/49/83 46/56/84
s 2
f 34/38/49 27/31/48 48/55/85 61/69/86
f 45/50/87 43/48/74 42/47/73 49/57/88 52/60/89
s 3
f 46/56/84 44/49/83 50/58/90 51/59/91
s off
f 55/63/92 53/61/93 54/62/94 59/67/95 64/72/96
f 60/68/97 58/66/98 56/64/99 57/65/100 67/75/101
s 3
f 62/70/102 47/54/64 40/45/63 70/78/103
f 63/71/104 50/58/105 47/54/106 62/70/107
f 65/73/108 51/59/91 50/58/90 63/71/109 69/77/110
s 2
f 66/74/111 45/50/87 52/60/89 68/76/112 71/79/113
f 72/80/114 61/69/86 48/55/85 77/85/115 80/88/116
s 3
f 74/82/117 69/77/110 63/71/109 73/81/118 76/84/119
s 5
f 71/79/120 75/83/121 66/74/122
s 3
f 81/89/123 62/70/102 70/78/103 78/86/124 84/92/125
s 5
f 79/87/126 76/84/127 73/81/128 82/90/129
s 6
f 80/88/130 77/85/131 83/91/132
f 81/89/133 84/92/134 85/93/135 86/94/136
s 2
f 27/31/77 22/22/43 28/32/44 43/48/78
s 1
f 16/24/36 34/95/137 40/96/138 17/17/35
s 4
f 42/97/139 38/52/82 46/51/81 51/98/140
s 3
f 32/36/59 47/54/106 50/58/105 44/49/60
s off
f 53/61/141 56/64/142 58/66/143 54/62/144
s 4
f 52/99/145 49/100/146 53/61/147 55/63/148
s off
f 58/66/149 60/68/150 59/67/151 54/62/152
s 4
f 57/65/153 56/64/154 65/101/155 69/102/156
f 55/63/148 64/72/157 68/103/158 52/99/145
s off
f 67/75/159 64/72/160 59/67/161 60/68/162
s 4
f 74/104/163 67/75/164 57/65/153 69/102/156
s 2
f 66/74/165 77/85/166 48/55/80 45/50/79
s off
f 87/105/167 88/106/168 89/107/169 90/108/170
s 1
f 61/109/171 72/110/172 91/111/173 88/106/174
f 87/105/175 92/112/176 78/113/177 70/114/178
s off
f 88/106/179 91/111/180 93/115/181 89/107/182
f 92/112/183 87/105/184 90/108/185 94/116/186
f 89/107/187 93/115/188 94/116/189 90/108/190
s 3
f 62/70/107 81/89/191 73/81/192 63/71/104
s off
f 83/91/193 77/85/194 66/74/195 75/83/196
f 91/111/197 92/112/198 94/116/199 93/115/200
s 8
f 95/117/201 96/118/202 97/119/203 98/120/204
s off
f 99/121/205 83/91/206 75/83/207 100/122/208
f 96/118/209 99/123/210 100/124/211 97/119/212
s 8
f 98/125/204 101/126/213 102/127/214 95/128/201
s 9
f 73/81/215 81/89/216 86/94/217 82/90/218
s off
f 85/93/219 102/129/220 101/130/221 79/87/222
s 9
f 82/90/218 86/94/217 85/93/223 79/87/224
s 4
f 65/101/155 56/64/154 53/61/147 49/100/146 42/97/139 51/98/140
s 1
f 34/95/137 61/109/171 88/106/174 87/105/175 70/114/178 40/96/138
s 4
f 76/131/225 71/132/226 68/103/158 64/72/157 67/75/164 74/104/163
s 1
f 78/113/177 92/112/176 91/111/173 72/110/172 80/133/227 84/134/228
s 5
f 71/79/120 76/84/127 79/87/126 101/130/229 98/135/230 97/136/231 100/122/232 75/83/121
s 6
f 84/92/134 80/88/130 83/91/132 99/121/233 96/137/234 95/138/235 102/129/236 85/93/135
