# This file uses centimeters as units for non-parametric coordinates.

mtllib beard.mtl
g default
v -0.287041 -0.145251 0.379635
v 0.287041 -0.145251 0.379635
v -0.452254 -0.154508 0.146946
v 0.452254 -0.154508 0.146946
v -0.469674 -0.078217 0.152606
v 0.469674 -0.078217 0.152606
v -0.475528 0.000000 0.154509
v 0.475528 0.000000 0.154508
v 0.407603 -0.226995 0.169258
v 0.316469 -0.317291 0.214949
v 0.204611 -0.369523 0.239853
v 0.103326 -0.402500 0.276235
v 0.000000 -0.411165 0.282456
v -0.103326 -0.402500 0.276235
v -0.204611 -0.369523 0.239853
v -0.316469 -0.317291 0.214949
v -0.407603 -0.226995 0.169258
v 0.455375 0.000000 0.194062
v 0.426701 -0.078217 0.236944
v 0.393242 -0.098974 0.286149
v 0.133409 -0.249486 0.410591
v 0.000000 -0.262200 0.423930
v -0.133409 -0.249486 0.410591
v -0.393242 -0.098974 0.286149
v -0.426702 -0.078217 0.236944
v -0.455375 0.000000 0.194062
v -0.227547 -0.439373 0.329095
v -0.119628 -0.456782 0.399046
v -0.136844 -0.404909 0.425296
v -0.260293 -0.374088 0.374166
v 0.000000 -0.456782 0.417994
v 0.000000 -0.404909 0.446970
v 0.119628 -0.456782 0.399046
v 0.136844 -0.404909 0.425296
v 0.227547 -0.439373 0.329095
v 0.260293 -0.374088 0.374166
v -0.344114 -0.345691 0.288043
v -0.389407 -0.248285 0.286634
v 0.344114 -0.345691 0.288043
v 0.389406 -0.248285 0.286634
v -0.464252 -0.168896 0.167296
v -0.473254 -0.085494 0.173722
v 0.464252 -0.168896 0.167296
v 0.473254 -0.085494 0.173722
v -0.476278 -0.002019 0.183223
v 0.476278 -0.002019 0.183223
v 0.422103 -0.248160 0.188348
v 0.222542 -0.454266 0.300554
v 0.112753 -0.487242 0.341270
v 0.000000 -0.495907 0.348984
v -0.112753 -0.487242 0.341270
v -0.222543 -0.454265 0.300555
v -0.422103 -0.248160 0.188348
v -0.285134 -0.279178 0.366269
v -0.289557 -0.147414 0.383053
v -0.135834 -0.254295 0.418055
v -0.139690 -0.306265 0.429920
v 0.000000 -0.266859 0.431532
v 0.000000 -0.318806 0.444444
v 0.135682 -0.253994 0.417586
v 0.139690 -0.306265 0.429920
v 0.289557 -0.147414 0.383053
v 0.285134 -0.279178 0.366269
v -0.433278 -0.183454 0.276920
v -0.396436 -0.099922 0.288469
v 0.396436 -0.099922 0.288469
v 0.433278 -0.183454 0.276920
v -0.462766 -0.085494 0.216991
v -0.433649 -0.079437 0.240484
v 0.433649 -0.079437 0.240484
v 0.462766 -0.085494 0.216991
v -0.463867 -0.000741 0.198389
v 0.463867 -0.000741 0.198389
vt 0.600000 0.250000
vt 0.650000 0.250000
vt 0.700000 0.250000
vt 0.750000 0.250000
vt 0.800000 0.250000
vt 0.550226 0.277852
vt 0.849774 0.277852
vt 0.887985 0.349965
vt 0.801218 0.240999
vt 0.750000 0.233924
vt 0.700000 0.225422
vt 0.650000 0.233924
vt 0.598782 0.240999
vt 0.512016 0.349965
vt 0.500000 0.450000
vt 0.500000 0.400000
vt 0.900000 0.400000
vt 0.900000 0.450000
vt 0.500000 0.500000
vt 0.887775 0.348848
vt 0.850638 0.280164
vt 0.801389 0.243392
vt 0.750000 0.233924
vt 0.700000 0.225422
vt 0.650000 0.233924
vt 0.598611 0.243393
vt 0.549362 0.280164
vt 0.512225 0.348848
vt 0.514189 0.500000
vt 0.900000 0.500000
vt 0.500001 0.500000
vt 0.885811 0.500000
vt 0.600000 0.300000
vt 0.594857 0.328240
vt 0.650000 0.300000
vt 0.700000 0.300000
vt 0.650000 0.310618
vt 0.750000 0.300000
vt 0.700000 0.301814
vt 0.800000 0.300000
vt 0.750000 0.310618
vt 0.805143 0.328240
vt 0.850000 0.350000
vt 0.500000 0.400000
vt 0.515715 0.450000
vt 0.858539 0.388201
vt 0.900000 0.450000
vt 0.500000 0.450000
vt 0.899999 0.500000
vt 0.884285 0.450000
vt 0.900000 0.400000
vt 0.550000 0.350000
vt 0.541442 0.388200
vt 0.650000 0.333190
vt 0.650000 0.333190
vt 0.700000 0.323687
vt 0.700000 0.323687
vt 0.750000 0.333190
vt 0.750000 0.333190
vt 0.800000 0.350000
vt 0.800000 0.350000
vt 0.600000 0.350000
vt 0.600000 0.350000
vt 0.849383 0.404516
vt 0.849330 0.404575
vt 0.550582 0.404516
vt 0.550636 0.404575
vt 0.869369 0.450000
vt 0.869369 0.450000
vt 0.530631 0.450000
vt 0.514189 0.500000
vt 0.530631 0.450000
vt 0.885811 0.500000
vn -0.501395 -0.702216 0.505466
vn -0.266819 -0.710658 0.650978
vn -0.311297 -0.262444 0.913355
vn -0.535974 -0.281085 0.796067
vn 0.000000 -0.707466 0.706748
vn 0.000000 -0.190891 0.981611
vn 0.266819 -0.710658 0.650978
vn 0.311298 -0.262445 0.913355
vn 0.501395 -0.702217 0.505465
vn 0.535975 -0.281085 0.796067
vn 0.753498 -0.655860 0.045705
vn 0.728544 -0.663813 -0.169040
vn 0.789686 -0.360791 0.496212
vn 0.081913 -0.930079 -0.358110
vn 0.205419 -0.805183 -0.556312
vn -0.000000 -0.952922 -0.303215
vn -0.081914 -0.930079 -0.358110
vn -0.205420 -0.805184 -0.556311
vn -0.753498 -0.655860 0.045705
vn -0.728544 -0.663814 -0.169040
vn -0.789685 -0.360791 0.496212
vn -0.971870 -0.077776 -0.222306
vn -0.758976 -0.290594 -0.582676
vn -0.940497 -0.338871 0.025149
vn -0.989433 -0.111769 0.092355
vn 0.758973 -0.290594 -0.582679
vn 0.971869 -0.077778 -0.222308
vn 0.989433 -0.111771 0.092354
vn 0.940497 -0.338870 0.025148
vn 0.201285 0.772609 0.602129
vn -0.995676 0.015346 -0.091619
vn -0.930134 0.178141 0.321118
vn -0.529980 0.353838 0.770662
vn 0.995676 0.015345 -0.091622
vn 0.930133 0.178142 0.321119
vn -0.201279 0.772615 0.602124
vn 0.529980 0.353839 0.770661
vn 0.395771 -0.662513 -0.635958
vn 0.346959 -0.696120 -0.628519
vn 0.172279 -0.651962 -0.738421
vn -0.056946 -0.608386 -0.791596
vn -0.000000 -0.613249 -0.789890
vn 0.056943 -0.608388 -0.791595
vn -0.172280 -0.651964 -0.738419
vn -0.346960 -0.696121 -0.628518
vn -0.395772 -0.662513 -0.635956
vn -0.514691 -0.084480 0.853204
vn -0.491652 0.025306 0.870424
vn -0.605807 0.069634 0.792559
vn -0.767763 -0.154320 0.621872
vn -0.264007 0.013655 0.964424
vn -0.233799 0.104286 0.966676
vn 0.000217 0.071386 0.997449
vn 0.000696 0.320091 0.947387
vn 0.263428 0.015046 0.964562
vn 0.233012 0.105272 0.966759
vn 0.513959 -0.083670 0.853724
vn 0.491785 0.024803 0.870363
vn 0.767763 -0.154319 0.621872
vn 0.605807 0.069634 0.792559
vn -0.628303 0.280485 0.725647
vn -0.900296 -0.001537 0.435276
vn 0.900296 -0.001538 0.435275
vn 0.628304 0.280485 0.725647
vn 0.201955 0.784827 0.585885
vn 0.227425 0.787559 0.572737
vn 0.000379 0.844925 0.534885
vn -0.200870 0.784912 0.586143
vn -0.223383 0.789114 0.572188
vn -0.004015 0.901820 0.432094
vn 0.004013 0.901817 0.432099
vn 0.239968 0.693628 0.679188
vn -0.239963 0.693632 0.679185
s 1
g polySurface8 pSphere7
usemtl initialShadingGroup
f 27/1/1 28/2/2 29/35/3 30/33/4
f 28/2/2 31/3/5 32/36/6 29/35/3
f 31/3/5 33/4/7 34/38/8 32/36/6
f 33/4/7 35/5/9 36/40/10 34/38/8
f 39/7/11 47/8/12 40/43/13
f 35/5/9 39/7/11 36/40/10
f 49/10/14 48/9/15 35/5/9 33/4/7
f 50/11/16 49/10/14 33/4/7 31/3/5
f 51/12/17 50/11/16 31/3/5 28/2/2
f 52/13/18 51/12/17 28/2/2 27/1/1
f 37/6/19 52/13/18 27/1/1
f 53/14/20 37/6/19 38/52/21
f 5/15/22 3/16/23 41/44/24 42/48/25
f 4/17/26 6/18/27 44/47/28 43/51/29
f 26/29/30 7/19/31 45/31/32 72/71/33
f 7/19/31 5/15/22 42/48/25 45/31/32
f 6/18/27 8/30/34 46/49/35 44/47/28
f 8/30/34 18/73/36 73/32/37 46/49/35
f 9/20/38 4/17/26 43/51/29 47/8/12
f 10/21/39 9/20/38 47/8/12 39/7/11
f 11/22/40 10/21/39 39/7/11 48/9/15
f 12/23/41 11/22/40 48/9/15 49/10/14
f 13/24/42 12/23/41 49/10/14 50/11/16
f 14/25/43 13/24/42 50/11/16 51/12/17
f 15/26/44 14/25/43 51/12/17 52/13/18
f 16/27/45 15/26/44 52/13/18 37/6/19
f 17/28/46 16/27/45 37/6/19 53/14/20
f 3/16/23 17/28/46 53/14/20 41/44/24
f 35/5/9 48/9/15 39/7/11
f 37/6/19 27/1/1 30/33/4
f 54/34/47 55/63/48 65/67/49 64/53/50
f 55/63/48 54/34/47 57/37/51 56/55/52
f 56/55/52 57/37/51 59/39/53 58/57/54
f 58/57/54 59/39/53 61/41/55 60/59/56
f 60/59/56 61/41/55 63/42/57 62/61/58
f 62/61/58 63/42/57 67/46/59 66/65/60
f 64/53/50 65/67/49 69/72/61 68/45/62
f 66/65/60 67/46/59 71/50/63 70/69/64
f 68/45/62 69/72/61 72/71/33 45/31/32
f 70/69/64 71/50/63 46/49/35 73/32/37
f 37/6/19 30/33/4 54/34/47 38/52/21
f 30/33/4 29/35/3 57/37/51 54/34/47
f 29/35/3 32/36/6 59/39/53 57/37/51
f 32/36/6 34/38/8 61/41/55 59/39/53
f 34/38/8 36/40/10 63/42/57 61/41/55
f 36/40/10 39/7/11 40/43/13 63/42/57
f 38/52/21 54/34/47 64/53/50
f 63/42/57 40/43/13 67/46/59
f 41/44/24 64/53/50 68/45/62 42/48/25
f 67/46/59 43/51/29 44/47/28 71/50/63
f 42/48/25 68/45/62 45/31/32
f 46/49/35 71/50/63 44/47/28
f 40/43/13 47/8/12 43/51/29 67/46/59
f 41/44/24 53/14/20 38/52/21 64/53/50
f 23/54/65 1/62/66 55/63/48 56/55/52
f 22/56/67 23/54/65 56/55/52 58/57/54
f 21/58/68 22/56/67 58/57/54 60/59/56
f 2/60/69 21/58/68 60/59/56 62/61/58
f 1/62/66 24/66/70 65/67/49 55/63/48
f 20/64/71 2/60/69 62/61/58 66/65/60
f 24/66/70 25/70/72 69/72/61 65/67/49
f 19/68/73 20/64/71 66/65/60 70/69/64
f 25/70/72 26/29/30 72/71/33 69/72/61
f 18/73/36 19/68/73 70/69/64 73/32/37
