# This file uses centimeters as units for non-parametric coordinates.

mtllib bow_tie.mtl
g default
v -0.100000 -0.212748 0.412377
v 0.000000 -0.257940 0.412377
v 0.100000 -0.212748 0.412377
v -0.100000 -0.312748 0.367827
v 0.000000 -0.267556 0.412377
v 0.100000 -0.312748 0.367827
v -0.095756 -0.306857 0.435091
v -0.100000 -0.312748 0.428889
v 0.000000 -0.262749 0.448022
v 0.000000 -0.267556 0.443562
v 0.095818 -0.306944 0.435060
v 0.100000 -0.312748 0.428949
v -0.095668 -0.220011 0.459983
v -0.100000 -0.212748 0.457639
v 0.000000 -0.262435 0.448022
v 0.000000 -0.257940 0.443884
v 0.095748 -0.219876 0.460028
v 0.100000 -0.212748 0.457727
vt 0.625000 0.500000
vt 0.375000 0.750000
vt 0.354663 0.000000
vt 0.498975 0.009620
vt 0.380307 0.019627
vt 0.375000 0.273687
vt 0.501024 0.009625
vt 0.380415 0.236737
vt 0.500000 0.124988
vt 0.619771 0.019338
vt 0.619685 0.236983
vt 0.500000 0.133139
vt 0.500000 0.279025
vt 0.375000 0.500000
vt 0.625000 0.273247
vt 0.500000 0.500000
vt 0.500000 0.750000
vt 0.375000 0.979663
vt 0.625000 0.750000
vt 0.625000 0.979962
vt 0.500000 0.968720
vt 0.645037 0.000000
vt 0.875000 0.000000
vt 0.875000 0.250000
vt 0.648247 0.250000
vt 0.125000 0.000000
vt 0.351313 0.250000
vt 0.125000 0.250000
vn 0.243844 -0.731399 0.636864
vn 0.243844 -0.731399 0.636864
vn 0.000894 -0.753945 0.656936
vn 0.000922 -0.753946 0.656936
vn -0.707788 -0.194628 0.679084
vn -0.707788 -0.194628 0.679084
vn -0.707788 -0.194628 0.679084
vn -0.707788 -0.194628 0.679084
vn -0.243921 -0.730960 0.637338
vn -0.243921 -0.730960 0.637338
vn 0.707785 -0.194826 0.679031
vn 0.707785 -0.194826 0.679031
vn 0.707785 -0.194826 0.679031
vn 0.707785 -0.194826 0.679031
vn 0.345332 0.547464 0.762253
vn 0.345332 0.547464 0.762253
vn 0.345332 0.547464 0.762253
vn 0.345332 0.547464 0.762253
vn -0.346326 0.548335 0.761175
vn -0.346326 0.548335 0.761175
vn -0.346326 0.548335 0.761175
vn -0.346326 0.548335 0.761175
vn -0.002451 -0.274609 0.961553
vn 0.000004 -0.274674 0.961537
vn 0.000005 -0.274675 0.961537
vn -0.002451 -0.274609 0.961553
vn 0.002451 -0.274738 0.961516
vn 0.002451 -0.274738 0.961516
vn 0.411817 0.911267 0.000000
vn 0.411817 0.911267 0.000000
vn 0.411817 0.911267 0.000000
vn 0.411817 0.911267 0.000000
vn -0.411817 0.911267 0.000000
vn -0.411816 0.911267 0.000000
vn -0.411817 0.911267 0.000000
vn -0.411817 0.911267 0.000000
vn 0.411817 -0.911267 0.000000
vn 0.411817 -0.911267 0.000000
vn 0.411817 -0.911267 0.000000
vn 0.411817 -0.911267 0.000000
vn -0.411816 -0.911267 0.000000
vn -0.411816 -0.911267 0.000000
vn -0.411816 -0.911267 0.000000
vn -0.411816 -0.911267 0.000000
vn 1.000000 0.000000 0.000000
vn 1.000000 0.000000 0.000000
vn 1.000000 0.000000 0.000000
vn 1.000000 0.000000 0.000000
vn -1.000000 0.000000 0.000000
vn -1.000000 0.000000 0.000000
vn -1.000000 0.000000 0.000000
vn -1.000000 0.000000 0.000000
s 1
g pCube5
usemtl initialShadingGroup
f 7/5/1 8/3/2 10/4/3 9/9/4
s off
f 8/3/5 7/5/6 13/8/7 14/6/8
s 1
f 9/9/4 10/7/3 12/22/9 11/10/10
s off
f 11/10/11 12/22/12 18/15/13 17/11/14
f 14/6/15 13/8/16 15/12/17 16/13/18
f 16/13/19 15/12/20 17/11/21 18/15/22
s 2
f 7/5/23 9/9/24 15/12/25 13/8/26
f 9/9/24 11/10/27 17/11/28 15/12/25
s off
f 14/6/29 16/13/30 2/16/31 1/14/32
f 16/13/33 18/15/34 3/1/35 2/16/36
f 4/2/37 5/17/38 10/21/39 8/18/40
f 5/17/41 6/19/42 12/20/43 10/21/44
f 12/22/45 6/23/46 3/24/47 18/25/48
f 4/26/49 8/3/50 14/27/51 1/28/52
