# This file uses centimeters as units for non-parametric coordinates.

mtllib goatee.mtl
g default
v -0.056638 -0.489181 0.320335
v -0.022830 -0.495974 0.342995
v 0.022830 -0.495974 0.342995
v 0.056638 -0.489181 0.320335
v -0.107957 -0.403998 0.375576
v -0.035986 -0.417719 0.416926
v 0.035986 -0.417719 0.416926
v 0.107957 -0.403998 0.375576
v -0.141096 -0.318919 0.405769
v -0.050000 -0.347791 0.447656
v 0.050000 -0.347791 0.447656
v 0.141096 -0.318919 0.405769
v -0.162002 -0.221093 0.430665
v -0.050000 -0.277862 0.447656
v 0.050000 -0.277862 0.447656
v 0.162002 -0.221093 0.430665
v -0.150000 -0.227887 0.213030
v -0.050000 -0.277862 0.206819
v 0.050000 -0.277862 0.206819
v 0.150000 -0.227887 0.213030
v -0.150000 -0.295974 0.225348
v -0.035986 -0.347791 0.216003
v 0.035986 -0.347791 0.216003
v 0.150000 -0.295974 0.225348
v -0.107957 -0.401129 0.252701
v -0.035986 -0.422920 0.232662
v 0.035986 -0.422920 0.232662
v 0.107957 -0.401129 0.252701
v -0.056638 -0.489019 0.286930
v -0.022830 -0.489019 0.266349
v 0.022830 -0.489019 0.266349
v 0.056638 -0.489019 0.286930
vt 0.375000 0.000000
vt 0.458333 0.000000
vt 0.541667 0.000000
vt 0.625000 0.000000
vt 0.375000 0.083333
vt 0.458333 0.083333
vt 0.541667 0.083333
vt 0.625000 0.083333
vt 0.375000 0.166667
vt 0.458333 0.166667
vt 0.541667 0.166667
vt 0.625000 0.166667
vt 0.375000 0.250000
vt 0.458333 0.250000
vt 0.541667 0.250000
vt 0.625000 0.250000
vt 0.375000 0.500000
vt 0.458333 0.500000
vt 0.541667 0.500000
vt 0.625000 0.500000
vt 0.375000 0.583333
vt 0.458333 0.583333
vt 0.541667 0.583333
vt 0.625000 0.583333
vt 0.375000 0.666667
vt 0.458333 0.666667
vt 0.541667 0.666667
vt 0.625000 0.666667
vt 0.375000 0.750000
vt 0.458333 0.750000
vt 0.541667 0.750000
vt 0.625000 0.750000
vt 0.375000 1.000000
vt 0.458333 1.000000
vt 0.541667 1.000000
vt 0.625000 1.000000
vt 0.875000 0.000000
vt 0.875000 0.083333
vt 0.875000 0.166667
vt 0.875000 0.250000
vt 0.125000 0.000000
vt 0.125000 0.083333
vt 0.125000 0.166667
vt 0.125000 0.250000
vn -0.688755 -0.687930 0.228842
vn -0.215951 -0.826346 0.520113
vn -0.260430 -0.560479 0.786155
vn -0.824069 -0.489969 0.284325
vn 0.215951 -0.826346 0.520113
vn 0.260430 -0.560479 0.786155
vn 0.688756 -0.687930 0.228842
vn 0.824069 -0.489969 0.284325
vn -0.251321 -0.276141 0.927677
vn -0.898221 -0.284078 0.335408
vn 0.251321 -0.276141 0.927677
vn 0.898221 -0.284078 0.335408
vn -0.216198 -0.113190 0.969766
vn -0.942484 -0.162708 0.291974
vn 0.216198 -0.113190 0.969766
vn 0.942485 -0.162708 0.291974
vn 0.449775 0.893141 -0.001460
vn 0.235044 0.971984 -0.000763
vn 0.241215 0.970471 -0.000783
vn 0.449775 0.893141 -0.001460
vn -0.235045 0.971984 -0.000763
vn -0.241215 0.970472 -0.000783
vn -0.449775 0.893141 -0.001460
vn -0.449775 0.893141 -0.001460
vn -0.936517 -0.162618 -0.310631
vn -0.099033 -0.154851 -0.982962
vn -0.124327 -0.215088 -0.968648
vn -0.898800 -0.258516 -0.354017
vn 0.099033 -0.154851 -0.982962
vn 0.124327 -0.215088 -0.968648
vn 0.936517 -0.162618 -0.310631
vn 0.898800 -0.258516 -0.354017
vn -0.190179 -0.363283 -0.912062
vn -0.806247 -0.444806 -0.390017
vn 0.190179 -0.363283 -0.912062
vn 0.806247 -0.444806 -0.390017
vn -0.165631 -0.729667 -0.663440
vn -0.691257 -0.659640 -0.295021
vn 0.165631 -0.729667 -0.663440
vn 0.691257 -0.659641 -0.295021
s 1
g pCube4
usemtl initialShadingGroup
f 1/1/1 2/2/2 6/6/3 5/5/4
f 2/2/2 3/3/5 7/7/6 6/6/3
f 3/3/5 4/4/7 8/8/8 7/7/6
f 5/5/4 6/6/3 10/10/9 9/9/10
f 6/6/3 7/7/6 11/11/11 10/10/9
f 7/7/6 8/8/8 12/12/12 11/11/11
f 9/9/10 10/10/9 14/14/13 13/13/14
f 10/10/9 11/11/11 15/15/15 14/14/13
f 11/11/11 12/12/12 16/16/16 15/15/15
s 2
f 13/13/17 14/14/18 18/18/19 17/17/20
f 14/14/18 15/15/21 19/19/22 18/18/19
f 15/15/21 16/16/23 20/20/24 19/19/22
s 1
f 17/17/25 18/18/26 22/22/27 21/21/28
f 18/18/26 19/19/29 23/23/30 22/22/27
f 19/19/29 20/20/31 24/24/32 23/23/30
f 21/21/28 22/22/27 26/26/33 25/25/34
f 22/22/27 23/23/30 27/27/35 26/26/33
f 23/23/30 24/24/32 28/28/36 27/27/35
f 25/25/34 26/26/33 30/30/37 29/29/38
f 26/26/33 27/27/35 31/31/39 30/30/37
f 27/27/35 28/28/36 32/32/40 31/31/39
f 29/29/38 30/30/37 2/34/2 1/33/1
f 30/30/37 31/31/39 3/35/5 2/34/2
f 31/31/39 32/32/40 4/36/7 3/35/5
f 4/4/7 32/37/40 28/38/36 8/8/8
f 8/8/8 28/38/36 24/39/32 12/12/12
f 12/12/12 24/39/32 20/40/31 16/16/16
f 29/41/38 1/1/1 5/5/4 25/42/34
f 25/42/34 5/5/4 9/9/10 21/43/28
f 21/43/28 9/9/10 13/13/14 17/44/25
