# This file uses centimeters as units for non-parametric coordinates.

mtllib touchbrush_moustache.mtl
g default
v -0.125091 -0.121710 0.483566
v -0.126995 -0.100209 0.507414
v -0.150000 -0.105351 0.485528
v -0.034220 -0.089922 0.486624
v -0.034428 -0.070660 0.510957
v -0.065410 -0.075518 0.510375
v -0.064587 -0.096068 0.485788
v 0.064587 -0.096068 0.485788
v 0.065397 -0.075532 0.510373
v 0.034450 -0.070691 0.510954
v 0.034220 -0.089922 0.486624
v 0.150000 -0.105351 0.485528
v 0.126995 -0.100209 0.507414
v 0.125091 -0.121710 0.483566
v -0.150000 -0.051575 0.490776
v -0.128729 -0.049421 0.513505
v -0.132593 -0.025446 0.493909
v -0.064492 0.003244 0.497842
v -0.065546 -0.023520 0.516611
v -0.034501 -0.015000 0.517633
v -0.034220 0.009367 0.498532
v 0.034220 0.009367 0.498532
v 0.034529 -0.014960 0.517637
v 0.065562 -0.023551 0.516607
v 0.064492 0.003244 0.497842
v 0.132593 -0.025446 0.493909
v 0.128729 -0.049421 0.513505
v 0.150000 -0.051575 0.490776
v -0.150000 -0.102600 0.462586
v -0.150000 -0.048859 0.468709
v -0.132593 -0.022809 0.471915
v -0.064503 0.005922 0.475476
v -0.034220 0.012047 0.476185
v 0.034215 0.012046 0.476193
v 0.064492 0.005928 0.475460
v 0.132656 -0.022826 0.471831
v 0.150000 -0.048859 0.468709
v 0.150000 -0.102600 0.462586
v 0.125091 -0.118959 0.460624
v 0.064587 -0.093397 0.463519
v 0.034220 -0.087242 0.464278
v -0.034220 -0.087242 0.464278
v -0.064587 -0.093397 0.463519
v -0.125091 -0.118959 0.460625
vt 0.395757 0.947205
vt 0.383122 0.947205
vt 0.395757 0.000000
vt 0.394170 0.062494
vt 0.471483 0.945334
vt 0.446177 0.945087
vt 0.471483 0.000000
vt 0.471310 0.055055
vt 0.553823 0.945087
vt 0.528517 0.945334
vt 0.553823 0.000000
vt 0.554498 0.059153
vt 0.616878 0.947205
vt 0.604243 0.947205
vt 0.677795 0.067667
vt 0.375000 0.302220
vt 0.392726 0.192216
vt 0.445378 0.190273
vt 0.471250 0.195201
vt 0.528775 0.195304
vt 0.554635 0.190213
vt 0.607274 0.192216
vt 0.625000 0.318162
vt 0.445491 0.059204
vt 0.528708 0.054978
vt 0.605830 0.062494
vt 0.389506 0.305777
vt 0.446257 0.304555
vt 0.471483 0.304666
vt 0.528517 0.304666
vt 0.553743 0.304555
vt 0.610494 0.305777
vt 0.322205 0.067667
vt 0.319223 0.202712
vt 0.458333 0.000000
vt 0.446177 0.000000
vt 0.541667 0.000000
vt 0.528517 0.000000
vt 0.604243 0.000000
vt 0.680777 0.202712
vt 0.383122 0.889441
vt 0.264441 0.067667
vt 0.375000 0.354300
vt 0.263641 0.202885
vt 0.389506 0.361155
vt 0.446248 0.360870
vt 0.471483 0.360933
vt 0.528512 0.360914
vt 0.553743 0.360911
vt 0.610547 0.361359
vt 0.625000 0.370187
vt 0.736359 0.202885
vt 0.616878 0.889441
vt 0.735559 0.067667
vt 0.604243 0.889441
vt 0.553823 0.889017
vt 0.528517 0.889067
vt 0.471483 0.889067
vt 0.446177 0.889017
vt 0.395757 0.889441
vn -0.128636 -0.389178 0.912137
vn 0.153387 -0.942799 0.295977
vn 0.293554 -0.883313 0.365492
vn 0.076251 -0.346898 0.934798
vn -0.884253 -0.295860 0.361336
vn -0.257028 0.091050 0.962105
vn -0.906859 0.092671 0.411119
vn 0.013743 -0.373244 0.927631
vn 0.053788 -0.937087 0.344928
vn -0.053877 -0.937131 0.344793
vn -0.013819 -0.373343 0.927591
vn -0.023000 0.169195 0.985314
vn -0.119713 0.202485 0.971941
vn -0.076236 -0.346943 0.934783
vn -0.293548 -0.883405 0.365275
vn -0.153352 -0.942839 0.295868
vn 0.128684 -0.389188 0.912125
vn 0.119701 0.202249 0.971991
vn 0.023044 0.169474 0.985265
vn 0.884253 -0.295860 0.361335
vn 0.906837 0.092628 0.411177
vn 0.257004 0.091063 0.962110
vn -0.458050 0.738449 0.494856
vn -0.302710 0.799254 0.519191
vn -0.058622 0.835348 0.546587
vn 0.058560 0.835358 0.546578
vn 0.302955 0.799426 0.518784
vn 0.457927 0.738718 0.494570
vn -0.977773 0.208135 0.025289
vn -0.941683 -0.334108 -0.040069
vn -0.542206 0.834236 0.100316
vn -0.335923 0.935190 0.112141
vn -0.062326 0.990957 0.118828
vn 0.062315 0.990957 0.118837
vn 0.336027 0.935152 0.112145
vn 0.542425 0.834064 0.100561
vn 0.977744 0.208233 0.025628
vn 0.941683 -0.334109 -0.040070
vn -0.104738 -0.987424 -0.118421
vn -0.331971 -0.936578 -0.112323
vn -0.062587 -0.990939 -0.118842
vn 0.062587 -0.990939 -0.118842
vn 0.331970 -0.936579 -0.112323
vn 0.104738 -0.987424 -0.118421
s 1
g pCube23
usemtl initialShadingGroup
f 2/4/1 1/3/2 7/36/3 6/24/4
f 3/33/5 2/4/1 16/17/6 15/34/7
f 5/8/8 4/7/9 11/38/10 10/25/11
f 6/24/4 5/8/8 20/19/12 19/18/13
f 9/12/14 8/11/15 14/39/16 13/26/17
f 10/25/11 9/12/14 24/21/18 23/20/19
f 13/26/17 12/15/20 28/40/21 27/22/22
f 17/27/23 16/17/6 19/18/13 18/28/24
f 21/29/25 20/19/12 23/20/19 22/30/26
f 25/31/27 24/21/18 27/22/22 26/32/28
f 2/4/1 6/24/4 19/18/13 16/17/6
f 5/8/8 10/25/11 23/20/19 20/19/12
f 9/12/14 13/26/17 27/22/22 24/21/18
f 1/3/2 2/4/1 3/33/5
f 4/35/9 5/8/8 6/24/4 7/36/3
f 8/37/15 9/12/14 10/25/11 11/38/10
f 12/15/20 13/26/17 14/39/16
f 15/34/7 16/17/6 17/27/23
f 18/28/24 19/18/13 20/19/12 21/29/25
f 22/30/26 23/20/19 24/21/18 25/31/27
f 26/32/28 27/22/22 28/40/21
f 30/44/29 29/42/30 3/33/5 15/34/7
f 15/16/7 17/27/23 31/45/31 30/43/29
f 17/27/23 18/28/24 32/46/32 31/45/31
f 18/28/24 21/29/25 33/47/33 32/46/32
f 21/29/25 22/30/26 34/48/34 33/47/33
f 22/30/26 25/31/27 35/49/35 34/48/34
f 25/31/27 26/32/28 36/50/36 35/49/35
f 26/32/28 28/23/21 37/51/37 36/50/36
f 12/15/20 38/54/38 37/52/37 28/40/21
f 12/13/20 14/14/16 39/55/39 38/53/38
f 40/56/40 39/55/39 14/14/16 8/9/15
f 8/9/15 11/10/10 41/57/41 40/56/40
f 42/58/42 41/57/41 11/10/10 4/5/9
f 4/5/9 7/6/3 43/59/43 42/58/42
f 44/60/44 43/59/43 7/6/3 1/1/2
f 1/1/2 3/2/5 29/41/30 44/60/44
