# This file uses centimeters as units for non-parametric coordinates.

mtllib default.mtl
g default
v 0.510969 -0.101878 -0.097721
v 0.520222 -0.166041 -0.108260
v 0.525213 -0.192022 -0.056916
v 0.526932 -0.200975 -0.000000
v 0.525213 -0.192022 0.056916
v 0.520222 -0.166041 0.108260
v 0.510969 -0.101878 0.097721
v 0.495181 -0.097003 -0.119500
v 0.488443 -0.175552 -0.132389
v 0.484118 -0.207378 -0.069601
v 0.482627 -0.218345 0.000000
v 0.484118 -0.207378 0.069601
v 0.488443 -0.175552 0.132389
v 0.495181 -0.097003 0.119500
v 0.504333 -0.039579 0.048856
v 0.514752 -0.061567 0.029348
v 0.516136 -0.068794 0.015491
v 0.516616 -0.071298 -0.000000
v 0.516136 -0.068794 -0.015491
v 0.514752 -0.061567 -0.029348
v 0.504333 -0.039579 -0.048856
v 0.498015 -0.020722 -0.059744
v 0.497481 -0.047658 -0.035940
v 0.496287 -0.056546 -0.018978
v 0.495873 -0.059627 0.000000
v 0.496287 -0.056546 0.018978
v 0.497481 -0.047658 0.035940
v 0.498015 -0.020722 0.059744
vt 0.450000 0.312500
vt 0.462500 0.312500
vt 0.475000 0.312500
vt 0.487500 0.312500
vt 0.500000 0.312500
vt 0.512500 0.312500
vt 0.525000 0.312500
vt 0.450000 0.688440
vt 0.462500 0.688440
vt 0.475000 0.688440
vt 0.487500 0.688440
vt 0.500000 0.688440
vt 0.512500 0.688440
vt 0.525000 0.688440
vt 0.373591 0.248091
vt 0.465733 0.176591
vt 0.351397 0.204534
vt 0.343750 0.156250
vt 0.351397 0.107966
vt 0.373591 0.064409
vt 0.408159 0.029841
vt 0.373591 0.935591
vt 0.351397 0.892034
vt 0.343750 0.843750
vt 0.351397 0.795466
vt 0.373591 0.751909
vt 0.408159 0.717341
vt 0.454084 0.777426
vt 0.408159 0.282659
vt 0.408159 0.970159
vt 0.475002 0.231242
vt 0.454084 0.216323
vt 0.454084 0.903823
vt 0.441438 0.110348
vt 0.444069 0.112129
vt 0.459555 0.164842
vt 0.457415 0.151703
vt 0.459555 0.138560
vt 0.465733 0.126798
vt 0.454084 0.089927
vt 0.465683 0.864129
vt 0.459480 0.852370
vt 0.457330 0.839207
vt 0.459480 0.826039
vt 0.465683 0.814264
vt 0.512499 0.762977
vn 0.905585 0.217381 -0.364228
vn 0.902001 -0.188584 -0.388368
vn 0.655834 -0.410584 -0.633485
vn 0.777066 0.206608 -0.594543
vn 0.920827 -0.361255 -0.146877
vn 0.428005 -0.859437 -0.279606
vn 0.911318 -0.411704 0.000000
vn 0.376741 -0.926319 0.000000
vn 0.920827 -0.361255 0.146877
vn 0.428005 -0.859437 0.279606
vn 0.902001 -0.188584 0.388368
vn 0.655834 -0.410583 0.633485
vn 0.905584 0.217382 0.364228
vn 0.777066 0.206609 0.594543
vn 0.943253 0.295641 -0.151232
vn 0.973711 0.216427 -0.071039
vn 0.984699 0.172450 -0.025067
vn 0.985699 0.168515 0.000000
vn 0.984699 0.172450 0.025067
vn 0.973711 0.216427 0.071039
vn 0.943253 0.295641 0.151232
vn -0.997643 0.067491 -0.012390
vn -0.996190 0.084464 -0.021699
vn -0.997591 0.068044 -0.013512
vn -0.998190 0.059496 -0.008806
vn -0.996185 0.085775 -0.016091
vn -0.997215 0.073634 -0.011810
vn -0.996536 0.083167 0.000000
vn -0.997426 0.071710 0.000000
vn -0.996185 0.085775 0.016091
vn -0.997215 0.073634 0.011810
vn -0.996190 0.084464 0.021699
vn -0.997591 0.068044 0.013512
vn -0.997643 0.067490 0.012390
vn -0.998190 0.059495 0.008806
vn 0.927605 0.320169 0.192462
vn 0.927604 0.320169 -0.192462
s 1
g pCylinder5
usemtl initialShadingGroup
f 1/1/1 2/2/2 9/9/3 8/8/4
f 2/2/2 3/3/5 10/10/6 9/9/3
f 3/3/5 4/4/7 11/11/8 10/10/6
f 4/4/7 5/5/9 12/12/10 11/11/8
f 5/5/9 6/6/11 13/13/12 12/12/10
f 6/6/11 7/7/13 14/14/14 13/13/12
f 2/20/2 1/21/1 21/40/15 20/39/16
f 3/19/5 2/20/2 20/39/16 19/38/17
f 4/18/7 3/19/5 19/38/17 18/37/18
f 5/17/9 4/18/7 18/37/18 17/36/19
f 6/15/11 5/17/9 17/36/19 16/16/20
f 7/29/13 6/15/11 16/16/20 15/32/21
s 2
f 8/30/22 9/22/23 23/41/24 22/33/25
f 9/22/23 10/23/26 24/42/27 23/41/24
f 10/23/26 11/24/28 25/43/29 24/42/27
f 11/24/28 12/25/30 26/44/31 25/43/29
f 12/25/30 13/26/32 27/45/33 26/44/31
f 13/26/32 14/27/34 28/28/35 27/45/33
s 1
f 15/32/21 28/46/36 14/14/14 7/29/13
f 8/30/4 22/33/37 21/31/15 1/1/1
f 15/32/21 21/31/15 22/33/37 28/46/36
f 15/34/21 16/35/20 17/36/19 18/37/18 19/38/17 20/39/16 21/40/15
s 2
f 22/33/25 23/41/24 24/42/27 25/43/29 26/44/31 27/45/33 28/46/35
