# This file uses centimeters as units for non-parametric coordinates.

mtllib monoacle.mtl
g default
v -0.326159 0.105332 0.480553
v -0.334621 0.111480 0.480553
v -0.282322 0.149477 0.480553
v -0.279090 0.139530 0.480553
v -0.334621 0.111480 0.501472
v -0.282322 0.149477 0.501472
v -0.344137 0.050000 0.480553
v -0.354597 0.050000 0.480553
v -0.354597 0.050000 0.501472
v -0.279090 0.139530 0.501472
v -0.326159 0.105332 0.501472
v -0.344137 0.050000 0.501472
v -0.217678 0.149477 0.480553
v -0.220910 0.139530 0.480553
v -0.217678 0.149477 0.501472
v -0.220910 0.139530 0.501472
v -0.326158 -0.005332 0.480553
v -0.334621 -0.011480 0.480553
v -0.334621 -0.011480 0.501472
v -0.326158 -0.005332 0.501472
v -0.165379 0.111480 0.480553
v -0.173842 0.105332 0.480553
v -0.165379 0.111480 0.501472
v -0.173842 0.105332 0.501472
v -0.279090 -0.039530 0.480553
v -0.326158 -0.005332 0.480553
v -0.326158 -0.005332 0.501472
v -0.279090 -0.039530 0.501472
v -0.282322 -0.049477 0.480553
v -0.282322 -0.049477 0.501472
v -0.145403 0.050000 0.480553
v -0.155863 0.050000 0.480553
v -0.155863 0.050000 0.501472
v -0.145403 0.050000 0.501472
v -0.220910 -0.039530 0.480553
v -0.217678 -0.049477 0.480553
v -0.220910 -0.039530 0.501472
v -0.217678 -0.049477 0.501472
v -0.165380 -0.011480 0.480553
v -0.173842 -0.005332 0.480553
v -0.173842 -0.005332 0.501472
v -0.165380 -0.011480 0.501472
v -0.342315 -0.017071 0.480553
v -0.364107 0.046910 0.480553
v -0.342315 -0.017071 0.501472
v -0.364107 0.046910 0.501472
v -0.288200 -0.057568 0.480553
v -0.288200 -0.057568 0.501472
v -0.332574 -0.024360 0.501472
v -0.332574 -0.024360 0.480553
v -0.344930 -0.009393 0.501472
v -0.344930 -0.009393 0.480553
v -0.363444 -0.037920 0.501472
v -0.363444 -0.037920 0.480553
v -0.358079 -0.037941 0.480553
v -0.355649 -0.037877 0.480553
v -0.355649 -0.037877 0.501472
v -0.358079 -0.037941 0.501472
vt 0.386232 0.072968
vt 0.373591 0.064409
vt 0.451716 0.007647
vt 0.456544 0.021883
vt 0.425000 0.312500
vt 0.450000 0.312500
vt 0.450000 0.688440
vt 0.425000 0.688440
vt 0.359375 0.155625
vt 0.343750 0.156250
vt 0.475000 0.312500
vt 0.475000 0.688440
vt 0.450000 0.329588
vt 0.425000 0.329588
vt 0.425000 0.671352
vt 0.450000 0.671352
vt 0.456545 0.976867
vt 0.451716 0.992353
vt 0.373591 0.935591
vt 0.386232 0.925782
vt 0.475000 0.329588
vt 0.475000 0.671352
vt 0.343750 0.843750
vt 0.359375 0.843125
vt 0.548284 0.007647
vt 0.543455 0.021883
vt 0.400000 0.312500
vt 0.400000 0.688440
vt 0.400000 0.329588
vt 0.400000 0.671352
vt 0.543456 0.976867
vt 0.548284 0.992353
vt 0.386232 0.238282
vt 0.373591 0.248091
vt 0.373591 0.751909
vt 0.386232 0.760468
vt 0.626409 0.064409
vt 0.613768 0.072968
vt 0.375000 0.312500
vt 0.375000 0.688440
vt 0.375000 0.329588
vt 0.375000 0.671352
vt 0.613768 0.925782
vt 0.626409 0.935591
vt 0.525000 0.329588
vt 0.500000 0.329588
vt 0.500000 0.671352
vt 0.525000 0.671352
vt 0.504500 0.688440
vt 0.504500 0.312500
vt 0.525000 0.312500
vt 0.525000 0.688440
vt 0.656250 0.156250
vt 0.640625 0.155625
vt 0.625000 0.329588
vt 0.600000 0.329588
vt 0.600000 0.671352
vt 0.625000 0.671352
vt 0.600000 0.312500
vt 0.625000 0.312500
vt 0.625000 0.688440
vt 0.600000 0.688440
vt 0.640625 0.843125
vt 0.656250 0.843750
vt 0.543456 0.289367
vt 0.548284 0.304853
vt 0.451716 0.304853
vt 0.456544 0.289367
vt 0.550000 0.329588
vt 0.550000 0.671352
vt 0.525000 0.312500
vt 0.550000 0.312500
vt 0.550000 0.688440
vt 0.525000 0.688440
vt 0.456544 0.709383
vt 0.451716 0.695147
vt 0.548284 0.695147
vt 0.543455 0.709383
vt 0.626409 0.248091
vt 0.613768 0.238282
vt 0.575000 0.329588
vt 0.575000 0.671352
vt 0.386232 0.238282
vt 0.575000 0.312500
vt 0.575000 0.688440
vt 0.613768 0.760468
vt 0.626409 0.751909
vt 0.386232 0.760468
vt 0.500000 0.329588
vt 0.500000 0.671352
vt 0.500000 0.312500
vt 0.500000 0.312500
vt 0.497000 0.312500
vt 0.475000 0.312500
vt 0.500000 0.688440
vt 0.475000 0.688440
vt 0.497000 0.688440
vt 0.500000 0.688440
vt 0.497000 0.312500
vt 0.497000 0.688440
vt 0.500000 0.312500
vt 0.500000 0.688440
vt 0.504500 0.312500
vt 0.504500 0.688440
vn 0.000000 -0.000000 -1.000000
vn 0.000000 -0.000000 -1.000000
vn 0.000000 -0.000000 -1.000000
vn 0.000000 -0.000000 -1.000000
vn -0.309017 0.951056 0.000000
vn -0.809017 0.587785 0.000000
vn -0.809017 0.587785 0.000000
vn -0.309017 0.951056 0.000000
vn 0.000000 0.000000 -1.000000
vn 0.000000 0.000000 -1.000000
vn -0.951056 0.309017 0.000000
vn -0.951056 0.309017 0.000000
vn 0.809017 -0.587785 0.000000
vn 0.309017 -0.951056 0.000000
vn 0.309017 -0.951056 0.000000
vn 0.809017 -0.587785 0.000000
vn 0.000000 -0.000001 1.000000
vn 0.000000 -0.000001 1.000000
vn 0.000000 0.000000 1.000000
vn 0.000000 0.000000 1.000000
vn 1.000000 0.000000 0.000000
vn 1.000000 0.000000 0.000000
vn 0.000000 0.000000 1.000000
vn 0.000000 0.000000 1.000000
vn 0.000000 -0.000000 -1.000000
vn 0.000000 -0.000000 -1.000000
vn 0.309017 0.951056 0.000000
vn 0.309017 0.951056 0.000000
vn -0.309017 -0.951057 0.000000
vn -0.309017 -0.951057 0.000000
vn 0.000000 -0.000001 1.000000
vn 0.000000 -0.000001 1.000000
vn 0.000000 0.000000 -1.000000
vn 0.000000 0.000000 -1.000000
vn 0.000000 -0.000000 1.000000
vn 0.000000 -0.000000 1.000000
vn 0.000000 -0.000000 -1.000000
vn 0.000000 -0.000000 -1.000000
vn 0.809017 0.587785 0.000000
vn 0.809017 0.587785 0.000000
vn -0.809017 -0.587785 0.000000
vn -0.809017 -0.587785 0.000000
vn 0.000000 0.000000 1.000000
vn 0.000000 0.000000 1.000000
vn 0.309017 0.951056 0.000000
vn 0.809017 0.587785 0.000000
vn 0.809017 0.587785 0.000000
vn 0.309017 0.951056 0.000000
vn -0.599156 -0.800632 0.000000
vn -0.599156 -0.800632 0.000000
vn -0.599156 -0.800632 0.000000
vn -0.599156 -0.800632 0.000000
vn 0.000000 -0.000000 -1.000000
vn 0.000000 -0.000000 -1.000000
vn -1.000000 0.000000 0.000000
vn -1.000000 0.000000 0.000000
vn 1.000000 -0.000000 0.000000
vn 1.000000 -0.000000 0.000000
vn 0.000000 0.000000 1.000000
vn 0.000000 0.000000 1.000000
vn 0.000000 -0.000000 -1.000000
vn 0.000000 -0.000000 -1.000000
vn 0.000000 0.000000 -1.000000
vn 0.000000 0.000000 -1.000000
vn -0.309017 0.951056 0.000000
vn -0.309017 0.951056 0.000000
vn 0.000000 -1.000000 0.000000
vn 0.309017 -0.951056 0.000000
vn 0.309017 -0.951056 0.000000
vn 0.000000 -1.000000 0.000000
vn 0.000000 0.000001 1.000000
vn 0.000000 0.000000 1.000000
vn 0.000000 0.000001 1.000000
vn 0.000000 0.000001 1.000000
vn 0.000000 -0.000000 -1.000000
vn 0.000000 -0.000000 -1.000000
vn -0.809017 0.587785 0.000000
vn -0.809017 0.587785 0.000000
vn 0.000000 0.000000 -1.000000
vn 0.809017 -0.587785 0.000000
vn 0.809017 -0.587785 0.000000
vn 0.000000 0.000000 1.000000
vn 0.000000 0.000000 1.000000
vn 0.000000 -0.000000 1.000000
vn 0.951056 0.309017 0.000000
vn 0.951056 0.309017 0.000000
vn 0.000000 -0.000000 -1.000000
vn 0.000000 -0.000000 -1.000000
vn 0.000000 -0.000000 -1.000000
vn 0.000000 0.000001 1.000000
vn 0.000000 0.000000 1.000000
vn 0.000000 -0.000000 1.000000
vn -0.309016 0.951057 0.000000
vn -0.309016 0.951057 0.000000
vn -0.309016 0.951057 0.000000
vn -0.309016 0.951057 0.000000
vn 0.000000 -0.000000 -1.000000
vn 0.000000 -0.000000 -1.000000
vn 0.809018 -0.587784 0.000000
vn 0.809018 -0.587784 0.000000
vn 0.809018 -0.587784 0.000000
vn 0.809018 -0.587784 0.000000
vn 0.000000 -0.000001 1.000000
vn 0.000000 -0.000001 1.000000
vn -0.946596 -0.322423 0.000000
vn -0.946596 -0.322423 0.000000
vn -0.946596 -0.322423 0.000000
vn -0.946596 -0.322423 0.000000
vn -0.838827 0.544399 0.000000
vn -0.838827 0.544399 0.000000
vn -0.838827 0.544399 0.000000
vn -0.838827 0.544399 0.000000
vn 0.000000 -0.000001 -1.000000
vn 0.000000 -0.000000 -1.000000
vn 0.000000 0.000000 1.000000
vn 0.000000 0.000000 1.000000
vn 0.000000 -0.000002 -1.000000
vn 0.505458 -0.862851 0.000000
vn 0.505458 -0.862851 0.000000
vn 0.505458 -0.862851 0.000000
vn 0.505458 -0.862851 0.000000
vn 0.000000 0.000000 1.000000
s 1
g polySurface1 pCylinder8
usemtl initialShadingGroup
f 1/1/1 2/2/2 3/3/3 4/4/4
s 2
f 3/5/5 2/6/6 5/7/7 6/8/8
s 1
f 7/9/9 8/10/10 2/2/2 1/1/1
s 2
f 2/6/6 8/11/11 9/12/12 5/7/7
s 3
f 1/13/13 4/14/14 10/15/15 11/16/16
s 4
f 10/17/17 6/18/18 5/19/19 11/20/20
s 3
f 7/21/21 1/13/13 11/16/16 12/22/22
s 4
f 11/20/20 5/19/19 9/23/23 12/24/24
s 1
f 4/4/4 3/3/3 13/25/25 14/26/26
s 2
f 13/27/27 3/5/5 6/8/8 15/28/28
s 3
f 4/14/14 14/29/29 16/30/30 10/15/15
s 4
f 16/31/31 15/32/32 6/18/18 10/17/17
s 1
f 17/33/33 18/34/34 8/10/10 7/9/9
s 4
f 12/24/24 9/23/23 19/35/35 20/36/36
s 1
f 14/26/26 13/25/25 21/37/37 22/38/38
s 2
f 21/39/39 13/27/27 15/28/28 23/40/40
s 3
f 14/29/29 22/41/41 24/42/42 16/30/30
s 4
f 24/43/43 23/44/44 15/32/32 16/31/31
s 3
f 25/45/45 26/46/46 27/47/47 28/48/48
s off
f 49/49/49 50/50/50 47/51/51 48/52/52
s 1
f 22/38/38 21/37/37 31/53/53 32/54/54
s 3
f 22/55/41 32/56/55 33/57/56 24/58/42
s 2
f 31/59/57 21/60/39 23/61/40 34/62/58
s 4
f 33/63/59 34/64/60 23/44/44 24/43/43
s 1
f 35/65/61 36/66/62 29/67/63 25/68/64
s 3
f 35/69/65 25/45/45 28/48/48 37/70/66
s 2
f 29/71/67 36/72/68 38/73/69 30/74/70
s 4
f 28/75/71 30/76/72 38/77/73 37/78/74
s 1
f 32/54/54 31/53/53 39/79/75 40/80/76
s 3
f 32/56/55 40/81/77 41/82/78 33/57/56
s 1
f 29/67/63 18/34/34 17/33/33 26/83/79 25/68/64
f 40/80/76 39/79/75 36/66/62 35/65/61
s 3
f 40/81/77 35/69/65 37/70/66 41/82/78
s 2
f 39/84/80 31/59/57 34/62/58 42/85/81
s 4
f 41/86/82 42/87/83 34/64/60 33/63/59
s 2
f 36/72/68 39/84/80 42/85/81 38/73/69
s 4
f 37/78/74 38/77/73 42/87/83 41/86/82
f 19/35/35 30/76/72 28/75/71 27/88/84 20/36/36
s 3
f 26/46/46 17/89/85 7/21/21 12/22/22 20/90/86 27/47/47
s 1
f 8/11/10 18/91/34 43/92/87 52/93/88 44/94/89
s 4
f 19/95/35 9/12/23 46/96/90 51/97/91 45/98/92
s off
f 9/12/93 8/11/94 44/94/95 46/96/96
s 1
f 18/91/34 29/71/63 47/51/97 50/50/98 43/92/87
s off
f 29/71/99 30/74/100 48/52/101 47/51/102
s 4
f 30/74/72 19/95/35 45/98/92 49/49/103 48/52/104
s off
f 44/94/105 52/93/106 51/97/107 46/96/108
f 51/97/109 52/93/110 54/99/111 53/100/112
s 1
f 52/93/88 43/92/87 55/101/113 54/99/114
s 4
f 45/98/92 51/97/91 53/100/115 58/102/116
s 1
f 43/92/87 50/50/98 56/103/117 55/101/113
s off
f 50/50/118 49/49/119 57/104/120 56/103/121
s 4
f 49/49/103 45/98/92 58/102/116 57/104/122
g default
v -0.363444 -0.037920 0.501472
v -0.363444 -0.037920 0.480553
v -0.358079 -0.037941 0.480553
v -0.358079 -0.037941 0.501472
v -0.355649 -0.037877 0.480553
v -0.355649 -0.037877 0.501472
v -0.364220 -0.377408 0.501472
v -0.364220 -0.377408 0.480553
v -0.355870 -0.377396 0.480553
v -0.355870 -0.377396 0.501472
v -0.350455 -0.377300 0.480553
v -0.350455 -0.377300 0.501472
vt 0.497000 0.688440
vt 0.497000 0.312500
vt 0.500000 0.312500
vt 0.500000 0.688440
vt 0.504500 0.312500
vt 0.504500 0.688440
vt 0.497000 0.688440
vt 0.497000 0.312500
vt 0.500000 0.312500
vt 0.500000 0.688440
vt 0.504500 0.312500
vt 0.504500 0.688440
vn 0.001452 -0.999999 0.000000
vn 0.001452 -0.999999 0.000000
vn 0.007863 -0.999969 0.000000
vn 0.007863 -0.999969 0.000000
vn 0.017746 -0.999842 0.000000
vn 0.017746 -0.999842 0.000000
vn -0.999997 0.002287 0.000000
vn -0.999997 0.002287 0.000000
vn -0.999997 0.002287 0.000000
vn -0.999997 0.002287 0.000000
vn 0.000000 -0.000000 -1.000000
vn 0.000000 0.000000 -1.000000
vn 0.000000 0.000000 -1.000000
vn 0.000000 -0.000000 -1.000000
vn 0.000000 0.000000 1.000000
vn 0.000000 -0.000000 1.000000
vn 0.000000 -0.000000 1.000000
vn 0.000000 0.000000 1.000000
vn 0.000000 0.000000 -1.000000
vn 0.000000 0.000000 -1.000000
vn 0.999883 0.015300 0.000000
vn 0.999883 0.015300 0.000000
vn 0.999883 0.015300 0.000000
vn 0.999883 0.015300 0.000000
vn 0.000000 0.000000 1.000000
vn 0.000000 0.000000 1.000000
s 1
g pCylinder8 polySurface2
usemtl initialShadingGroup
f 65/105/123 66/106/124 67/107/125 68/108/126
f 67/107/125 69/109/127 70/110/128 68/108/126
s off
f 59/111/129 60/112/130 66/106/131 65/105/132
s 2
f 60/112/133 61/113/134 67/107/135 66/106/136
s 3
f 62/114/137 59/111/138 65/105/139 68/108/140
s 2
f 61/113/134 63/115/141 69/109/142 67/107/135
s off
f 63/115/143 64/116/144 70/110/145 69/109/146
s 3
f 64/116/147 62/114/137 68/108/140 70/110/148
